<svg width="158" height="159" viewBox="0 0 158 159" fill="none" xmlns="http://www.w3.org/2000/svg">
<g filter="url(#filter0_d_103_8161)">
<mask id="mask0_103_8161" style="mask-type:luminance" maskUnits="userSpaceOnUse" x="77" y="58" width="77" height="39">
<path d="M77.3652 58.2304H153.234V96.6677H77.3652V58.2304Z" fill="white"/>
</mask>
<g mask="url(#mask0_103_8161)">
<mask id="mask1_103_8161" style="mask-type:luminance" maskUnits="userSpaceOnUse" x="77" y="58" width="77" height="39">
<path d="M153.224 73.7162C147.762 69.0597 139.7 70.6245 138.155 70.8616C118.078 73.9438 112.037 104.073 90.926 94.4C86.0798 92.1903 81.063 87.0597 77.3833 80.516C102.193 92.2662 116.541 48.6319 141.645 60.202C146.073 62.2504 150.863 67.0018 153.215 73.7067" fill="white"/>
</mask>
<g mask="url(#mask1_103_8161)">
<path d="M-1.65283 -4.28638H158.877V156.869H-1.65283V-4.28638Z" fill="white"/>
</g>
</g>
<mask id="mask2_103_8161" style="mask-type:luminance" maskUnits="userSpaceOnUse" x="76" y="49" width="74" height="33">
<path d="M76.1055 49.0115H149.471V81.6163H76.1055V49.0115Z" fill="white"/>
</mask>
<g mask="url(#mask2_103_8161)">
<mask id="mask3_103_8161" style="mask-type:luminance" maskUnits="userSpaceOnUse" x="76" y="49" width="74" height="33">
<path d="M87.9415 81.1698C91.3082 80.6862 94.5326 79.4059 97.482 77.7462C98.2881 77.3005 99.0563 76.8358 99.815 76.3237C107.042 71.5439 112.827 64.9243 120.101 60.2204C125.449 56.7779 131.405 54.957 137.788 55.5734C139.485 55.7441 141.145 56.1045 142.748 56.6166C145.043 57.4038 147.29 58.7125 149.225 60.154C148.77 59.2531 148.286 58.4091 147.755 57.6124C143.032 50.4143 135.673 48.9633 129.935 49.6936C127.412 50.0255 125.023 50.8221 122.718 51.9317C118.062 54.1699 114.126 57.5176 110.456 61.2636C104.215 67.5892 97.9372 74.4933 89.8382 77.9833C87.7802 78.8653 85.6085 79.2636 83.3988 79.3395C82.0047 79.3869 77.3672 79.1972 76.2671 78.6851C79.3777 81.388 85.8456 81.4733 87.9415 81.1698Z" fill="white"/>
</mask>
<g mask="url(#mask3_103_8161)">
<path d="M-1.65039 -4.28729H158.879V156.868H-1.65039V-4.28729Z" fill="white"/>
</g>
</g>
<mask id="mask4_103_8161" style="mask-type:luminance" maskUnits="userSpaceOnUse" x="72" y="1" width="30" height="75">
<path d="M72.9746 1.35675H101.188V75.9742H72.9746V1.35675Z" fill="white"/>
</mask>
<g mask="url(#mask4_103_8161)">
<mask id="mask5_103_8161" style="mask-type:luminance" maskUnits="userSpaceOnUse" x="73" y="1" width="28" height="75">
<path d="M95.3938 1.73651C89.2674 5.50152 88.2716 13.648 88.0155 15.1843C84.7342 35.2328 111.535 50.2928 95.8206 67.3824C92.2073 71.3086 85.7869 74.4856 78.437 75.9651C97.2716 56.0115 60.2095 28.8693 78.9776 8.57423C82.2874 4.9894 88.3095 1.90722 95.4033 1.73651" fill="white"/>
</mask>
<g mask="url(#mask5_103_8161)">
<path d="M-1.65234 -4.28656H158.877V156.869H-1.65234V-4.28656Z" fill="white"/>
</g>
</g>
<mask id="mask6_103_8161" style="mask-type:luminance" maskUnits="userSpaceOnUse" x="64" y="0" width="20" height="77">
<path d="M64.8188 0.730957H83.0085V76.6002H64.8188V0.730957Z" fill="white"/>
</mask>
<g mask="url(#mask6_103_8161)">
<mask id="mask7_103_8161" style="mask-type:luminance" maskUnits="userSpaceOnUse" x="65" y="1" width="18" height="76">
<path d="M81.2731 1.3662C80.2678 1.50845 79.3194 1.69812 78.3995 1.96367C70.1013 4.23026 66.4406 10.7835 65.3595 16.4642C64.8948 18.9679 64.9233 21.481 65.2647 24.0226C65.9475 29.1438 67.9296 33.9236 70.3479 38.5706C74.4354 46.4515 79.0634 54.5695 79.879 63.3324C80.0876 65.5705 79.7936 67.7518 79.1772 69.8761C78.7884 71.2038 77.1761 75.5568 76.3605 76.4578C79.879 74.3334 81.9749 68.2165 82.3258 66.1206C82.8948 62.7729 82.6861 59.3018 82.0128 55.9826C81.8326 55.0816 81.6335 54.2091 81.3869 53.3366C79.0634 44.972 74.5681 37.4231 72.3584 29.0585C70.7178 22.8941 70.8316 16.6918 73.3922 10.8119C74.075 9.24711 74.9285 7.77715 75.9243 6.42098C77.3753 4.46735 79.3194 2.74133 81.292 1.34723L81.2731 1.3662Z" fill="white"/>
</mask>
<g mask="url(#mask7_103_8161)">
<path d="M-1.65137 -4.28577H158.878V156.87H-1.65137V-4.28577Z" fill="white"/>
</g>
</g>
<mask id="mask8_103_8161" style="mask-type:luminance" maskUnits="userSpaceOnUse" x="7" y="33" width="68" height="42">
<path d="M7.75537 33.9606H74.8522V74.0955H7.75537V33.9606Z" fill="white"/>
</mask>
<g mask="url(#mask8_103_8161)">
<mask id="mask9_103_8161" style="mask-type:luminance" maskUnits="userSpaceOnUse" x="8" y="34" width="67" height="40">
<path d="M9.07392 34.501C10.762 41.4715 18.1877 44.952 19.5818 45.6727C37.6387 54.9857 60.2477 34.1501 71.6186 54.3882C74.2456 59.0257 75.2793 66.1195 74.4258 73.5642C61.2625 49.4946 24.0012 76.3523 10.4965 52.2354C8.11607 47.9773 7.04442 41.3102 9.07392 34.5105" fill="white"/>
</mask>
<g mask="url(#mask9_103_8161)">
<path d="M-1.65186 -4.2879H158.878V156.868H-1.65186V-4.2879Z" fill="white"/>
</g>
</g>
<mask id="mask10_103_8161" style="mask-type:luminance" maskUnits="userSpaceOnUse" x="4" y="47" width="71" height="29">
<path d="M4 47.7612H74.8524V75.9751H4V47.7612Z" fill="white"/>
</mask>
<g mask="url(#mask10_103_8161)">
<mask id="mask11_103_8161" style="mask-type:luminance" maskUnits="userSpaceOnUse" x="4" y="47" width="71" height="29">
<path d="M66.2699 66.8616C63.2635 65.2778 59.8968 64.3958 56.5301 64.0165C55.6197 63.9027 54.7188 63.8363 53.8178 63.7984C45.1497 63.4095 36.586 65.3727 27.9464 64.8985C21.5829 64.5476 15.703 62.5181 10.9043 58.2599C9.64294 57.1409 8.5049 55.87 7.5186 54.4854C6.11502 52.5128 5.06233 50.1419 4.35106 47.8184C4.18035 48.8142 4.07604 49.791 4.0381 50.7394C3.6303 59.3316 8.72303 64.8416 13.8063 67.6298C16.0349 68.8342 18.4438 69.5929 20.9569 70.0576C26.0307 70.9965 31.1993 70.5792 36.3584 69.7162C45.1308 68.2747 54.2635 66.3779 62.8652 68.3031C65.0559 68.8057 67.0475 69.7541 68.8779 71.006C70.0254 71.7741 73.6671 74.6572 74.2646 75.7193C73.3352 71.7077 68.1381 67.8289 66.2793 66.8616" fill="white"/>
</mask>
<g mask="url(#mask11_103_8161)">
<path d="M-1.65234 -4.28418H158.877V156.872H-1.65234V-4.28418Z" fill="white"/>
</g>
</g>
<mask id="mask12_103_8161" style="mask-type:luminance" maskUnits="userSpaceOnUse" x="13" y="72" width="59" height="60">
<path d="M13.3994 72.8445H71.0885V131.785H13.3994V72.8445Z" fill="white"/>
</mask>
<g mask="url(#mask12_103_8161)">
<mask id="mask13_103_8161" style="mask-type:luminance" maskUnits="userSpaceOnUse" x="13" y="72" width="58" height="60">
<path d="M13.5518 126.731C20.7119 127.281 26.3168 121.287 27.4263 120.187C41.851 105.895 29.0291 77.9563 51.7804 73.3757C57.0154 72.3135 64.0902 73.5274 70.8994 76.6475C43.9279 81.7118 57.9542 125.46 30.8499 130.856C26.0702 131.786 19.3937 130.761 13.5518 126.731Z" fill="white"/>
</mask>
<g mask="url(#mask13_103_8161)">
<path d="M-1.65039 -4.28619H158.879V156.87H-1.65039V-4.28619Z" fill="white"/>
</g>
</g>
<mask id="mask14_103_8161" style="mask-type:luminance" maskUnits="userSpaceOnUse" x="24" y="77" width="49" height="62">
<path d="M24.6938 77.2363H72.9751V138.055H24.6938V77.2363Z" fill="white"/>
</mask>
<g mask="url(#mask14_103_8161)">
<mask id="mask15_103_8161" style="mask-type:luminance" maskUnits="userSpaceOnUse" x="24" y="77" width="49" height="61">
<path d="M61.9936 82.33C59.5563 84.7009 57.688 87.6313 56.2749 90.7135C55.9051 91.5386 55.5447 92.3732 55.2412 93.2172C52.197 101.345 51.4098 110.089 48.2802 118.169C45.9852 124.105 42.2486 129.065 36.7101 132.318C35.2497 133.181 33.6943 133.874 32.0821 134.376C29.7586 135.107 27.1886 135.363 24.7607 135.325C25.6617 135.789 26.5532 136.197 27.4351 136.529C35.4868 139.564 42.296 136.415 46.5162 132.461C48.3561 130.716 49.826 128.658 51.0399 126.41C53.4867 121.867 54.7006 116.841 55.4783 111.663C56.806 102.881 57.8208 93.5966 62.335 86.0096C63.473 84.0939 64.9904 82.4817 66.7449 81.1256C67.8355 80.2815 71.7048 77.7114 72.8998 77.4554C68.8028 77.1045 63.511 80.8505 61.9936 82.33Z" fill="white"/>
</mask>
<g mask="url(#mask15_103_8161)">
<path d="M-1.65186 -4.28406H158.878V156.872H-1.65186V-4.28406Z" fill="white"/>
</g>
</g>
<mask id="mask16_103_8161" style="mask-type:luminance" maskUnits="userSpaceOnUse" x="62" y="80" width="51" height="72">
<path d="M62.9409 80.3655H112.474V151.227H62.9409V80.3655Z" fill="white"/>
</mask>
<g mask="url(#mask16_103_8161)">
<mask id="mask17_103_8161" style="mask-type:luminance" maskUnits="userSpaceOnUse" x="63" y="80" width="50" height="71">
<path d="M102.649 150.971C105.38 144.332 101.416 137.144 100.714 135.759C91.5717 117.607 61.0343 121.183 63.7087 98.1183C64.3252 92.8264 67.6539 86.4629 72.7277 80.9434C69.2282 108.18 115.158 108.342 111.895 135.787C111.326 140.634 108.272 146.656 102.639 150.971" fill="white"/>
</mask>
<g mask="url(#mask17_103_8161)">
<path d="M-1.65283 -4.28583H158.877V156.87H-1.65283V-4.28583Z" fill="white"/>
</g>
</g>
<mask id="mask18_103_8161" style="mask-type:luminance" maskUnits="userSpaceOnUse" x="72" y="79" width="49" height="65">
<path d="M72.9746 79.1128H120.63V143.071H72.9746V79.1128Z" fill="white"/>
</mask>
<g mask="url(#mask18_103_8161)">
<mask id="mask19_103_8161" style="mask-type:luminance" maskUnits="userSpaceOnUse" x="73" y="79" width="48" height="64">
<path d="M75.3926 91.1765C76.9005 94.2208 79.1007 96.9047 81.5949 99.2092C82.2682 99.8161 82.951 100.414 83.6623 100.964C90.4526 106.369 98.5232 109.831 105.247 115.303C110.198 119.315 113.754 124.417 115.139 130.685C115.508 132.345 115.67 134.043 115.67 135.731C115.651 138.149 115.082 140.681 114.313 142.976C115.044 142.265 115.698 141.544 116.286 140.804C121.673 134.081 120.781 126.636 118.306 121.41C117.206 119.125 115.717 117.095 113.953 115.227C110.397 111.491 105.987 108.797 101.292 106.445C93.3451 102.472 84.8383 98.6402 79.0248 92.0111C77.5548 90.323 76.4927 88.3978 75.7435 86.3019C75.2693 84.9932 74.0174 80.5169 74.1597 79.3125C72.557 83.1059 74.4821 89.2893 75.421 91.186" fill="white"/>
</mask>
<g mask="url(#mask19_103_8161)">
<path d="M-1.65234 -4.28589H158.877V156.87H-1.65234V-4.28589Z" fill="white"/>
</g>
</g>
</g>
<defs>
<filter id="filter0_d_103_8161" x="0.0151367" y="1.34723" width="157.209" height="157.623" filterUnits="userSpaceOnUse" color-interpolation-filters="sRGB">
<feFlood flood-opacity="0" result="BackgroundImageFix"/>
<feColorMatrix in="SourceAlpha" type="matrix" values="0 0 0 0 0 0 0 0 0 0 0 0 0 0 0 0 0 0 127 0" result="hardAlpha"/>
<feOffset dy="4"/>
<feGaussianBlur stdDeviation="2"/>
<feComposite in2="hardAlpha" operator="out"/>
<feColorMatrix type="matrix" values="0 0 0 0 0 0 0 0 0 0 0 0 0 0 0 0 0 0 0.75 0"/>
<feBlend mode="normal" in2="BackgroundImageFix" result="effect1_dropShadow_103_8161"/>
<feBlend mode="normal" in="SourceGraphic" in2="effect1_dropShadow_103_8161" result="shape"/>
</filter>
</defs>
</svg>
