<svg width="135" height="40" viewBox="0 0 135 40" fill="none" xmlns="http://www.w3.org/2000/svg">
<mask id="mask0_111_16310" style="mask-type:luminance" maskUnits="userSpaceOnUse" x="0" y="6" width="16" height="17">
<path d="M0 6.0415H15.4914V22.176H0V6.0415Z" fill="white"/>
</mask>
<g mask="url(#mask0_111_16310)">
<mask id="mask1_111_16310" style="mask-type:luminance" maskUnits="userSpaceOnUse" x="0" y="6" width="16" height="17">
<path d="M14.1518 6.05615C14.0909 6.22909 9.42157 19.6282 9.42157 19.6282L9.25107 19.2872C9.25107 19.2872 4.57928 6.22666 4.52082 6.05615H0.0219727V6.35575H0.0292799C1.88289 6.70406 2.17031 6.76009 2.95706 8.99611C2.95706 8.99611 7.62885 21.986 7.68731 22.1541H9.6213C9.67976 21.9885 15.3356 6.39716 15.4574 6.06102L14.1518 6.05615Z" fill="white"/>
</mask>
<g mask="url(#mask1_111_16310)">
<path d="M-1.42725 4.35352H67.1516V23.6033H-1.42725V4.35352Z" fill="white"/>
</g>
</g>
<mask id="mask2_111_16310" style="mask-type:luminance" maskUnits="userSpaceOnUse" x="16" y="5" width="6" height="18">
<path d="M16.5439 5.7832H21.5056V22.1759H16.5439V5.7832Z" fill="white"/>
</mask>
<g mask="url(#mask2_111_16310)">
<mask id="mask3_111_16310" style="mask-type:luminance" maskUnits="userSpaceOnUse" x="16" y="5" width="6" height="18">
<path d="M16.6196 6.33849V6.64296C18.9433 6.95717 19.0481 7.08383 19.0481 9.13474V22.1539H21.4619V5.80505C21.1964 5.83428 16.8291 6.31169 16.6196 6.33849Z" fill="white"/>
</mask>
<g mask="url(#mask3_111_16310)">
<path d="M-1.42676 4.35339H67.152V23.6032H-1.42676V4.35339Z" fill="white"/>
</g>
</g>
<mask id="mask4_111_16310" style="mask-type:luminance" maskUnits="userSpaceOnUse" x="24" y="5" width="13" height="18">
<path d="M24.2896 5.7832H36.4708V22.1759H24.2896V5.7832Z" fill="white"/>
</mask>
<g mask="url(#mask4_111_16310)">
<mask id="mask5_111_16310" style="mask-type:luminance" maskUnits="userSpaceOnUse" x="24" y="5" width="13" height="18">
<path d="M24.3457 6.33849V6.64296C26.6694 6.95717 26.7766 7.08383 26.7766 9.13474V22.1539H36.3881C36.3954 21.9298 36.4514 19.1214 36.4563 18.8851H36.0227C35.9594 21.2551 34.3494 21.2648 33.0389 21.2648H30.9515C29.244 21.2648 29.1953 21.2137 29.1953 19.3162V5.80505C28.9347 5.83428 24.5625 6.31169 24.3481 6.33849" fill="white"/>
</mask>
<g mask="url(#mask5_111_16310)">
<path d="M-1.42725 4.35339H67.1516V23.6032H-1.42725V4.35339Z" fill="white"/>
</g>
</g>
<mask id="mask6_111_16310" style="mask-type:luminance" maskUnits="userSpaceOnUse" x="37" y="5" width="14" height="18">
<path d="M37.9736 5.7832H50.1573V22.1759H37.9736V5.7832Z" fill="white"/>
</mask>
<g mask="url(#mask6_111_16310)">
<mask id="mask7_111_16310" style="mask-type:luminance" maskUnits="userSpaceOnUse" x="38" y="5" width="13" height="18">
<path d="M42.8672 5.80505V19.3162C42.8672 21.2137 42.9183 21.2648 44.6234 21.2648H46.7133C48.0213 21.2648 49.6362 21.2502 49.6971 18.8851H50.1282C50.1233 19.1214 50.0649 21.9273 50.0624 22.1539H40.4533V9.13961C40.4533 7.08626 40.3486 6.9596 38.0225 6.64539V6.33849L42.8672 5.80505Z" fill="white"/>
</mask>
<g mask="url(#mask7_111_16310)">
<path d="M-1.42725 4.35339H67.1516V23.6032H-1.42725V4.35339Z" fill="white"/>
</g>
</g>
<mask id="mask8_111_16310" style="mask-type:luminance" maskUnits="userSpaceOnUse" x="52" y="6" width="14" height="17">
<path d="M52.1865 6.0415H65.722V22.176H52.1865V6.0415Z" fill="white"/>
</mask>
<g mask="url(#mask8_111_16310)">
<mask id="mask9_111_16310" style="mask-type:luminance" maskUnits="userSpaceOnUse" x="52" y="6" width="14" height="17">
<path d="M55.5187 6.05603V6.35319C55.5966 6.36537 55.677 6.37268 55.677 6.37268C56.5563 6.49934 57.3869 6.61382 57.3869 7.60274C57.3869 7.81952 57.0751 8.77434 56.9655 9.08124C56.9655 9.08124 52.3181 21.813 52.1914 22.1515H53.4215C53.4799 21.9883 55.2458 17.0949 55.2458 17.0949H61.63C61.63 17.0949 63.3935 21.9859 63.4519 22.1515H65.7026C65.5808 21.813 59.9274 6.22166 59.8665 6.05603H55.5187ZM58.349 8.62819L61.3133 16.2131H55.5698L58.349 8.62819Z" fill="white"/>
</mask>
<g mask="url(#mask9_111_16310)">
<path d="M-1.42676 4.35352H67.152V23.6033H-1.42676V4.35352Z" fill="white"/>
</g>
</g>
<mask id="mask10_111_16310" style="mask-type:luminance" maskUnits="userSpaceOnUse" x="45" y="30" width="7" height="10">
<path d="M45.2954 30.2603H51.2801V39.3335H45.2954V30.2603Z" fill="white"/>
</mask>
<g mask="url(#mask10_111_16310)">
<mask id="mask11_111_16310" style="mask-type:luminance" maskUnits="userSpaceOnUse" x="45" y="30" width="7" height="10">
<path d="M48.2763 30.2625C46.9001 30.2625 45.502 31.0906 45.502 32.613C45.502 34.4934 47.6503 34.9391 49.0606 35.4092C49.7938 35.6504 50.4246 36.0596 50.4246 36.9291C50.4246 38.0398 49.3018 38.6074 48.325 38.6074C47.1558 38.6074 46.1669 38.2225 46.1426 36.8828H45.2974C45.3315 38.3102 46.4884 39.321 47.8671 39.3308H47.9255C49.6598 39.321 51.265 38.7389 51.265 36.8585C51.265 33.8552 46.3472 34.9781 46.3472 32.5058C46.3472 31.4438 47.4676 30.9883 48.3713 30.9883C49.2652 30.9883 50.242 31.2635 50.2663 32.3377H51.1115C50.9167 30.6595 49.4187 30.2625 48.2763 30.2625Z" fill="white"/>
</mask>
<g mask="url(#mask11_111_16310)">
<path d="M43.8457 28.811H90.2347V40.7828H43.8457V28.811Z" fill="white"/>
</g>
</g>
<mask id="mask12_111_16310" style="mask-type:luminance" maskUnits="userSpaceOnUse" x="51" y="30" width="9" height="10">
<path d="M51.748 30.4019H59.6521V39.1925H51.748V30.4019Z" fill="white"/>
</mask>
<g mask="url(#mask12_111_16310)">
<mask id="mask13_111_16310" style="mask-type:luminance" maskUnits="userSpaceOnUse" x="51" y="30" width="9" height="10">
<path d="M57.5525 36.0747L55.6672 31.1667L53.7503 36.0747H57.5525ZM51.7749 39.1511L55.2239 30.4432H56.1422L59.6107 39.1511H58.7558L57.8278 36.7981H53.497L52.5811 39.1511H51.7749Z" fill="white"/>
</mask>
<g mask="url(#mask13_111_16310)">
<path d="M43.8467 28.8113H90.2357V40.783H43.8467V28.8113Z" fill="white"/>
</g>
</g>
<mask id="mask14_111_16310" style="mask-type:luminance" maskUnits="userSpaceOnUse" x="61" y="30" width="1" height="10">
<path d="M61.0352 30.4062H61.7464V39.1506H61.0352V30.4062Z" fill="white"/>
</mask>
<g mask="url(#mask14_111_16310)">
<path d="M43.8462 28.8109H90.2352V40.7826H43.8462V28.8109Z" fill="white"/>
</g>
<mask id="mask15_111_16310" style="mask-type:luminance" maskUnits="userSpaceOnUse" x="63" y="30" width="8" height="10">
<path d="M63.8145 30.2603H70.6882V39.3335H63.8145V30.2603Z" fill="white"/>
</mask>
<g mask="url(#mask15_111_16310)">
<mask id="mask16_111_16310" style="mask-type:luminance" maskUnits="userSpaceOnUse" x="63" y="30" width="8" height="10">
<path d="M67.5485 30.2628C65.0275 30.2628 63.834 32.5548 63.834 34.7957C63.834 37.4604 65.1639 39.3165 67.5193 39.3311H67.5948C68.6933 39.3262 69.6335 39.1898 70.6712 38.7879V34.7129H67.7044V35.4363H69.8868V38.2447C69.2706 38.4274 68.6105 38.6077 67.9577 38.6077C65.6048 38.6077 64.6792 37.0147 64.6792 34.7981C64.6792 32.9908 65.4611 30.9886 67.5485 30.9886C68.5862 30.9886 69.5629 31.4806 69.7188 32.5913H70.6127C70.4787 31.0446 68.9929 30.2628 67.5485 30.2628Z" fill="white"/>
</mask>
<g mask="url(#mask16_111_16310)">
<path d="M43.8462 28.811H90.2352V40.7828H43.8462V28.811Z" fill="white"/>
</g>
</g>
<mask id="mask17_111_16310" style="mask-type:luminance" maskUnits="userSpaceOnUse" x="72" y="30" width="9" height="10">
<path d="M72.5591 30.2603H80.3681V39.3335H72.5591V30.2603Z" fill="white"/>
</mask>
<g mask="url(#mask17_111_16310)">
<mask id="mask18_111_16310" style="mask-type:luminance" maskUnits="userSpaceOnUse" x="72" y="30" width="9" height="10">
<path d="M76.4588 30.9886C78.6339 30.9886 79.501 32.8909 79.501 34.7981C79.501 36.7029 78.6339 38.6077 76.4588 38.6077C74.2861 38.6077 73.4214 36.7005 73.4214 34.7981C73.4214 32.8934 74.2885 30.9886 76.4588 30.9886ZM76.4588 30.2628C73.9646 30.2628 72.5762 32.0847 72.5762 34.7957C72.5762 37.4994 73.9548 39.3189 76.4369 39.3311H76.4856C78.9676 39.3189 80.3487 37.4994 80.3487 34.7957C80.3462 32.0847 78.9579 30.2628 76.4588 30.2628Z" fill="white"/>
</mask>
<g mask="url(#mask18_111_16310)">
<path d="M43.8462 28.811H90.2352V40.7828H43.8462V28.811Z" fill="white"/>
</g>
</g>
<mask id="mask19_111_16310" style="mask-type:luminance" maskUnits="userSpaceOnUse" x="82" y="30" width="7" height="10">
<path d="M82.2383 30.4019H88.7832V39.1925H82.2383V30.4019Z" fill="white"/>
</mask>
<g mask="url(#mask19_111_16310)">
<mask id="mask20_111_16310" style="mask-type:luminance" maskUnits="userSpaceOnUse" x="82" y="30" width="7" height="10">
<path d="M82.2603 30.4432H83.1517L87.9526 38.1037H87.977V30.4432H88.7589V39.1511H87.7699L83.0665 31.627H83.0446V39.1511H82.2603V30.4432Z" fill="white"/>
</mask>
<g mask="url(#mask20_111_16310)">
<path d="M43.8457 28.8113H90.2347V40.783H43.8457V28.8113Z" fill="white"/>
</g>
</g>
<mask id="mask21_111_16310" style="mask-type:luminance" maskUnits="userSpaceOnUse" x="76" y="5" width="11" height="18">
<path d="M76.0518 5.72998H86.4744V22.4929H76.0518V5.72998Z" fill="white"/>
</mask>
<g mask="url(#mask21_111_16310)">
<mask id="mask22_111_16310" style="mask-type:luminance" maskUnits="userSpaceOnUse" x="76" y="5" width="11" height="18">
<path d="M76.1201 9.86586C76.1201 12.5184 78.2928 13.6559 80.3924 14.752C82.2558 15.7287 84.0193 16.647 84.0193 18.5615C84.0193 21.1483 82.039 21.5331 80.8552 21.5331C79.0747 21.5331 77.3307 20.7196 76.3418 20.1618V21.8157C76.3783 21.8254 76.4173 21.8327 76.4173 21.8327C77.0652 21.9935 78.7824 22.4198 80.4655 22.4198C82.6967 22.4198 86.438 21.8133 86.438 17.7626C86.438 15.0248 84.2215 13.8849 82.0731 12.7766C80.256 11.8388 78.5413 10.9546 78.5413 9.15949C78.5413 7.62496 79.4839 6.67258 81.0014 6.67258C82.7819 6.67258 84.4431 7.33754 85.225 7.69803V6.20735C84.5503 6.07825 83.0474 5.79083 81.4642 5.79083C78.0663 5.79083 76.1201 7.27421 76.1201 9.86586Z" fill="white"/>
</mask>
<g mask="url(#mask22_111_16310)">
<path d="M74.6709 -1.3703H119.633V23.8715H74.6709V-1.3703Z" fill="white"/>
</g>
</g>
<mask id="mask23_111_16310" style="mask-type:luminance" maskUnits="userSpaceOnUse" x="89" y="0" width="14" height="23">
<path d="M89.0664 0.0107422H102.28V22.4928H89.0664V0.0107422Z" fill="white"/>
</mask>
<g mask="url(#mask23_111_16310)">
<mask id="mask24_111_16310" style="mask-type:luminance" maskUnits="userSpaceOnUse" x="89" y="0" width="14" height="23">
<path d="M94.5519 0.841378L94.3717 1.11662C94.3717 1.11662 92.7519 3.50853 92.5132 3.85685H93.3438C93.4144 3.79839 95.726 1.84735 95.726 1.84735C95.726 1.84735 97.9644 3.79595 98.0326 3.85685H98.8583C98.6172 3.5061 96.9317 1.07034 96.9317 1.07034C96.9268 1.06547 96.8172 0.877914 96.8172 0.877914C96.6077 0.505243 96.3714 0.0814209 95.6967 0.0814209C95.0293 0.0814209 94.8466 0.368841 94.5495 0.841378M89.1445 14.1674C89.1445 19.8744 91.1784 22.4222 95.7479 22.4222C100.21 22.4222 102.203 19.8744 102.203 14.1674C102.203 8.37518 100.21 5.79084 95.7479 5.79084C91.1175 5.79084 89.1445 8.2948 89.1445 14.1674ZM91.5584 14.1674C91.5584 11.7341 91.5584 6.67746 95.7479 6.67746C99.7888 6.67746 99.7888 11.549 99.7888 14.1674C99.7888 16.9223 99.7888 21.538 95.7479 21.538C91.9944 21.538 91.5584 17.3315 91.5584 14.1674Z" fill="white"/>
</mask>
<g mask="url(#mask24_111_16310)">
<path d="M74.6714 -1.37036H119.633V23.8714H74.6714V-1.37036Z" fill="white"/>
</g>
</g>
<mask id="mask25_111_16310" style="mask-type:luminance" maskUnits="userSpaceOnUse" x="104" y="6" width="15" height="17">
<path d="M104.053 6.0415H118.254V22.1955H104.053V6.0415Z" fill="white"/>
</mask>
<g mask="url(#mask25_111_16310)">
<mask id="mask26_111_16310" style="mask-type:luminance" maskUnits="userSpaceOnUse" x="104" y="6" width="15" height="17">
<path d="M116.914 6.05853V19.6282L116.629 19.2116C116.629 19.2116 109.086 6.18519 109.01 6.05853H104.087V6.35813C104.199 6.37762 104.38 6.41415 104.38 6.41415C106.211 6.76734 106.516 6.88913 106.516 9.03747V22.1516H107.79V7.97548L108.077 8.39199C108.077 8.39199 115.984 22.0274 116.057 22.1516H118.186V6.05853H116.914Z" fill="white"/>
</mask>
<g mask="url(#mask26_111_16310)">
<path d="M74.6709 -1.37054H119.633V23.8712H74.6709V-1.37054Z" fill="white"/>
</g>
</g>
<mask id="mask27_111_16310" style="mask-type:luminance" maskUnits="userSpaceOnUse" x="122" y="5" width="13" height="18">
<path d="M122.312 5.79053H134.468V22.4633H122.312V5.79053Z" fill="white"/>
</mask>
<g mask="url(#mask27_111_16310)">
<mask id="mask28_111_16310" style="mask-type:luminance" maskUnits="userSpaceOnUse" x="122" y="5" width="13" height="18">
<path d="M129.01 5.79053C124.377 5.79053 122.312 8.275 122.312 13.8505C122.312 19.7791 124.414 22.4219 129.132 22.4219C131.29 22.4219 133.526 21.7691 134.468 21.4573V13.1027H129.624V13.4023C129.709 13.4169 129.811 13.4412 129.811 13.4412C131.735 13.8115 132.055 13.9308 132.055 16.0573V21.0847L131.972 21.1139C131.263 21.3648 130.6 21.5328 129.67 21.5328C126.348 21.5328 124.73 19.0849 124.73 14.0404C124.73 10.6109 125.178 6.67227 128.671 6.67227C130.571 6.67227 131.426 7.97053 131.597 9.12752H134.249C133.952 7.01084 132.059 5.79053 129.01 5.79053Z" fill="white"/>
</mask>
<g mask="url(#mask28_111_16310)">
<path d="M122.312 5.79053H134.468V22.4146H122.312V5.79053Z" fill="white"/>
</g>
</g>
</svg>
