<svg width="92" height="47" viewBox="0 0 92 47" fill="none" xmlns="http://www.w3.org/2000/svg">
<g filter="url(#filter0_d_99_2405)">
<path d="M11.845 38.6432C9.04033 38.6432 6.74559 37.8943 4.96078 36.3963C3.20785 34.8983 2.33138 32.6992 2.33138 29.7989C2.33138 28.046 2.6501 26.3568 3.28753 24.7313C3.95683 23.074 4.68987 21.5123 5.48666 20.0462C4.68987 19.2176 3.9887 18.3092 3.38314 17.3212C2.80946 16.3013 2.52261 15.2018 2.52261 14.0225C2.52261 12.5883 2.95288 11.3453 3.81341 10.2936C4.70581 9.20993 5.82131 8.30159 7.15991 7.56854C8.49852 6.80363 9.88493 6.18213 11.3191 5.70406C12.7534 5.22599 14.0282 4.8754 15.1437 4.6523C17.6934 4.17423 20.2432 3.93519 22.7929 3.93519H24.3227C26.0438 3.32964 27.8126 2.88343 29.6293 2.59659C31.446 2.30975 33.2627 2.16633 35.0793 2.16633C36.0355 2.16633 36.9916 2.21413 37.9478 2.30975C38.9358 2.37349 39.8919 2.48504 40.8162 2.6444C41.9317 2.83563 42.9038 3.28183 43.7324 3.983C44.5611 4.68417 44.9754 5.65625 44.9754 6.89924C44.9754 7.12234 44.9117 7.47293 44.7842 7.951C44.6886 8.3972 44.5452 8.82747 44.3539 9.2418C44.1627 9.62426 43.9396 9.81548 43.6846 9.81548C43.4297 9.81548 43.3022 9.688 43.3022 9.43303C43.3022 9.27367 43.4615 8.98682 43.7803 8.5725C44.099 8.15817 44.2583 7.60042 44.2583 6.89924C44.2583 6.03871 44.0352 5.35348 43.589 4.84353C43.1428 4.30172 42.5691 3.91926 41.868 3.69616C41.1668 3.44119 40.4337 3.28183 39.6688 3.21809C38.9039 3.12247 38.2027 3.07466 37.5653 3.07466C36.1948 3.07466 34.8244 3.20215 33.4539 3.45712C32.1153 3.68022 30.7926 4.01487 29.4859 4.46107C30.7926 4.6523 32.2109 4.95508 33.7407 5.36941C35.2706 5.75187 36.7207 6.29368 38.0912 6.99486C39.4617 7.69603 40.5772 8.6203 41.4377 9.76768C42.2982 10.8832 42.7285 12.2696 42.7285 13.9269C42.7285 15.2974 42.4576 16.6679 41.9158 18.0383C41.374 19.3769 40.6568 20.6677 39.7644 21.9107C38.872 23.1537 37.9159 24.3329 36.896 25.4484C35.8761 26.5321 34.8881 27.5042 33.932 28.3647C34.2826 28.3328 34.7606 28.2691 35.3662 28.1735C35.9717 28.046 36.3861 27.9822 36.6092 27.9822C36.896 27.9822 37.0394 28.0938 37.0394 28.3169C37.0394 28.4762 36.9438 28.5878 36.7526 28.6515C36.147 28.8109 35.5255 28.9224 34.8881 28.9862C34.2826 29.0499 33.6611 29.1137 33.0236 29.1774C31.4301 30.5479 29.6134 31.9184 27.5736 33.2888C25.5338 34.6593 23.5259 35.727 21.5499 36.4919C20.0519 37.0975 18.4584 37.6074 16.7692 38.0218C15.1119 38.4361 13.4705 38.6432 11.845 38.6432ZM6.58623 18.2296C8.33916 15.4886 10.4267 13.0026 12.849 10.7716C15.3031 8.54062 18.0122 6.72395 20.9762 5.32161C19.9882 5.35348 18.9842 5.44909 17.9643 5.60845C16.9763 5.76781 15.9724 5.97497 14.9525 6.22994C14.0282 6.45304 13.0083 6.80363 11.8928 7.2817C10.8092 7.7279 9.75744 8.30159 8.73755 9.00276C7.74954 9.67206 6.92088 10.4688 6.25158 11.3931C5.61415 12.2855 5.29543 13.3054 5.29543 14.4528C5.29543 15.1221 5.42292 15.7914 5.67789 16.4607C5.96473 17.0981 6.26751 17.6877 6.58623 18.2296ZM30.2986 28.4603C31.1591 27.536 32.0675 26.4365 33.0236 25.1616C33.9798 23.8549 34.8881 22.4685 35.7486 21.0024C36.6092 19.5044 37.3103 18.0224 37.8522 16.5563C38.394 15.0583 38.6649 13.6719 38.6649 12.3971C38.6649 10.8991 38.2506 9.71987 37.4219 8.85934C36.6251 7.99881 35.5893 7.34544 34.3144 6.89924C33.0714 6.45304 31.7647 6.15026 30.3942 5.99091C29.0238 5.79968 27.7967 5.64032 26.7131 5.51283C24.3546 6.50085 22.0439 7.77571 19.781 9.33741C17.5181 10.8991 15.4306 12.652 13.5183 14.5962C11.606 16.5085 9.96461 18.5642 8.59413 20.7633C9.86899 22.0063 11.3829 23.1059 13.1358 24.062C14.8888 24.9863 16.7532 25.7672 18.7293 26.4046C20.7372 27.0102 22.7291 27.4882 24.7052 27.8388C26.6812 28.1575 28.5457 28.3647 30.2986 28.4603ZM17.2472 23.3927C17.056 23.3927 16.9604 23.2971 16.9604 23.1059C16.9604 22.8509 17.1676 22.4844 17.5819 22.0063C17.9962 21.4964 18.4902 20.9705 19.0639 20.4287C19.6376 19.8869 20.1954 19.4407 20.7372 19.0901C21.279 18.7076 21.6774 18.5164 21.9323 18.5164C22.0598 18.5164 22.1714 18.612 22.267 18.8032C22.4264 19.0582 22.5538 19.3132 22.6495 19.5682C22.7769 19.7913 22.9522 20.0303 23.1753 20.2853C23.3347 20.4128 23.6375 20.588 24.0837 20.8111C24.5299 21.0024 24.753 21.1617 24.753 21.2892C24.753 21.3848 24.7052 21.4645 24.6096 21.5283C24.5139 21.592 24.4343 21.6557 24.3705 21.7195C24.243 21.8151 23.8924 21.9267 23.3188 22.0541C22.7451 22.1498 22.1555 22.2454 21.5499 22.341C20.9762 22.4047 20.5778 22.4525 20.3547 22.4844C19.8448 22.5481 19.3667 22.6756 18.9205 22.8669C18.5062 23.0262 18.06 23.1856 17.5819 23.3449C17.5181 23.3768 17.4066 23.3927 17.2472 23.3927ZM13.4227 37.1134C15.5581 37.1134 17.566 36.7628 19.4464 36.0617C21.3587 35.3605 23.1435 34.4203 24.8008 33.241C26.49 32.0299 28.0517 30.7072 29.4859 29.273C27.0955 29.1774 24.5936 28.8428 21.9802 28.2691C19.3986 27.6635 16.8807 26.8349 14.4266 25.7831C11.9725 24.7313 9.77338 23.4884 7.82922 22.0541C7.15991 23.2653 6.55436 24.6039 6.01254 26.0699C5.47073 27.536 5.19982 28.9702 5.19982 30.3726C5.19982 31.9662 5.58228 33.2729 6.34719 34.2928C7.14398 35.2808 8.16387 35.9979 9.40685 36.4441C10.6498 36.8903 11.9884 37.1134 13.4227 37.1134ZM41.9046 40.1253C41.1397 40.1253 40.3429 40.0615 39.5142 39.934C38.6855 39.8066 37.9844 39.5038 37.4107 39.0257C36.8689 38.5795 36.598 37.8624 36.598 36.8744C36.598 36.6513 36.6617 36.2529 36.7892 35.6792C36.9167 35.0736 37.076 34.5159 37.2673 34.0059C37.4904 33.4641 37.7294 33.1932 37.9844 33.1932C38.08 33.1932 38.1278 33.2729 38.1278 33.4323C38.1597 33.5597 38.1756 33.6554 38.1756 33.7191C38.1756 34.6115 38.3031 35.472 38.5581 36.3007C38.8449 37.0975 39.2911 37.7508 39.8967 38.2608C40.5341 38.8026 41.3628 39.0735 42.3826 39.0735C42.542 39.0735 42.7173 39.0576 42.9085 39.0257C43.0997 39.0257 43.275 39.0098 43.4344 38.9779C44.5499 38.7548 45.6973 38.197 46.8765 37.3046C48.0558 36.4122 49.2191 35.2967 50.3664 33.9581C51.5457 32.5877 52.6771 31.1216 53.7608 29.5599C54.8763 27.9663 55.9121 26.3727 56.8682 24.7791C57.8562 23.1537 58.7327 21.6398 59.4976 20.2375C60.2625 18.8351 60.9 17.6399 61.4099 16.6519C62.3979 14.7078 63.5134 12.8433 64.7564 11.0585C65.9994 9.2418 67.4018 7.58448 68.9635 6.08652C65.7763 5.35348 62.6051 4.98695 59.4498 4.98695C57.4419 4.98695 55.5934 5.22599 53.9042 5.70406C52.215 6.18213 50.5577 7.07454 48.9322 8.38127C48.008 9.11431 47.1156 9.99078 46.255 11.0107C45.3945 11.9987 44.6933 13.0664 44.1515 14.2138C43.6097 15.3611 43.3388 16.5722 43.3388 17.8471C43.3388 18.4208 43.3707 19.0901 43.4344 19.855C43.53 20.588 43.6894 21.3052 43.9125 22.0063C44.1674 22.7075 44.518 23.2812 44.9642 23.7274C45.4423 24.1736 46.0797 24.3967 46.8765 24.3967C46.9403 24.3967 47.0199 24.4126 47.1156 24.4445C47.2112 24.4445 47.259 24.4923 47.259 24.5879C47.259 24.6835 47.1634 24.7473 46.9721 24.7791C46.8128 24.811 46.6853 24.827 46.5897 24.827C45.9204 24.827 45.2351 24.6676 44.534 24.3489C43.3547 23.8071 42.4304 23.074 41.7611 22.1498C41.1237 21.1936 40.805 20.0781 40.805 18.8032C40.805 16.9866 41.1715 15.3611 41.9046 13.9269C42.6695 12.4927 43.6575 11.2178 44.8686 10.1023C46.0797 8.95495 47.4343 7.951 48.9322 7.09047C50.4302 6.22994 51.9122 5.4969 53.3783 4.89134C54.7807 4.28578 56.2627 3.87145 57.8244 3.64835C59.3861 3.42525 60.9318 3.3137 62.4617 3.3137C63.9278 3.3137 65.3779 3.39338 66.8121 3.55274C68.2464 3.7121 69.6806 3.91926 71.1148 4.17423C72.6127 2.99498 74.2223 2.03884 75.9433 1.3058C77.6644 0.54088 79.497 0.158422 81.4412 0.158422C82.0148 0.158422 82.6523 0.222166 83.3534 0.349652C84.0546 0.477138 84.6442 0.732109 85.1223 1.11457C85.6323 1.49702 85.8872 2.05478 85.8872 2.78782C85.8872 2.91531 85.8394 3.18621 85.7438 3.60054C85.6482 3.983 85.5207 4.34952 85.3613 4.70011C85.2339 5.0507 85.0904 5.22599 84.9311 5.22599C84.8355 5.22599 84.7877 5.17818 84.7877 5.08257C84.7877 4.89134 84.8195 4.71605 84.8833 4.55669C84.9789 4.36546 85.0267 4.15829 85.0267 3.93519C85.0267 3.17028 84.692 2.59659 84.0227 2.21413C83.3853 1.83168 82.6523 1.5767 81.8236 1.44922C80.995 1.32173 80.2938 1.25799 79.7201 1.25799C78.254 1.25799 76.8995 1.54483 75.6565 2.11852C74.4135 2.66034 73.2502 3.40932 72.1665 4.36546C73.6008 4.6523 75.019 4.98695 76.4214 5.36941C77.8556 5.72 79.258 6.10246 80.6284 6.51679C81.2659 6.70801 82.0148 6.93111 82.8754 7.18609C83.7678 7.40919 84.6442 7.60042 85.5048 7.75977C86.3972 7.91913 87.1621 7.99881 87.7995 7.99881C88.182 7.99881 88.5007 7.93507 88.7557 7.80758C89.0106 7.68009 89.2019 7.61635 89.3293 7.61635C89.3931 7.61635 89.425 7.66416 89.425 7.75977C89.425 7.88726 89.3772 7.99881 89.2815 8.09442C89.2178 8.15817 89.154 8.22191 89.0903 8.28565C88.2616 8.89121 87.5605 9.36928 86.9868 9.71987C86.4131 10.0386 85.5685 10.1979 84.453 10.1979C83.8156 10.1979 83.1622 10.1342 82.4929 10.0067C81.8236 9.87923 81.1702 9.71987 80.5328 9.52864C78.8436 9.0187 77.1385 8.47688 75.4174 7.90319C73.7283 7.32951 72.0072 6.81956 70.2543 6.37336C69.2662 7.64822 68.2942 9.17805 67.338 10.9629C66.4137 12.7158 65.5373 14.5006 64.7086 16.3173C63.88 18.1339 63.0991 19.7913 62.3661 21.2892L62.7963 21.337C64.1031 21.3689 65.3939 21.1777 66.6687 20.7633C67.9436 20.349 69.2662 19.9347 70.6367 19.5204C72.0072 19.106 73.4255 18.8989 74.8916 18.8989C75.3696 18.8989 75.8796 18.9467 76.4214 19.0423C76.9951 19.106 77.4891 19.2813 77.9034 19.5682C78.3177 19.855 78.5249 20.3171 78.5249 20.9546C78.5249 21.6557 78.2221 22.2613 77.6166 22.7712C77.0429 23.2812 76.4692 23.6636 75.8955 23.9186C75.768 23.9824 75.6724 24.0142 75.6087 24.0142C75.5131 24.0142 75.4652 23.9824 75.4652 23.9186C75.4652 23.7593 75.5927 23.6318 75.8477 23.5362C76.1027 23.4405 76.2302 23.2174 76.2302 22.8669C76.2302 22.4844 76.0389 22.2294 75.6565 22.1019C75.274 21.9426 74.8438 21.847 74.3657 21.8151C73.9195 21.7832 73.5689 21.7673 73.3139 21.7673C72.1347 21.7673 70.9236 21.7992 69.6806 21.8629C68.4695 21.9267 67.2583 21.9585 66.0472 21.9585C65.4098 21.9585 64.7564 21.9426 64.0871 21.9107C63.4497 21.8788 62.7963 21.831 62.127 21.7673C61.139 23.8071 60.0076 25.9106 58.7327 28.0778C57.4897 30.2132 56.0555 32.1893 54.4301 34.0059C52.8046 35.8226 50.9561 37.2887 48.8844 38.4042C46.8128 39.5516 44.4862 40.1253 41.9046 40.1253ZM53.8086 27.3607C53.7448 27.3607 53.697 27.3289 53.6651 27.2651C53.6651 27.2014 53.6651 27.1536 53.6651 27.1217C53.6651 26.9305 53.6811 26.7552 53.713 26.5958C53.7767 26.4046 53.8245 26.2293 53.8564 26.0699C54.2388 24.6357 54.5575 23.1537 54.8125 21.6239C55.0675 20.0622 55.195 18.5483 55.195 17.0822C55.195 16.8272 55.179 16.4766 55.1472 16.0304C55.1153 15.5842 55.0197 15.1699 54.8603 14.7874C54.7328 14.405 54.4779 14.2138 54.0954 14.2138C53.7767 14.2138 53.5695 14.3412 53.4739 14.5962C53.3783 14.8193 53.2508 14.9309 53.0915 14.9309C52.9958 14.9309 52.948 14.8831 52.948 14.7874C52.948 14.7237 52.9799 14.6281 53.0437 14.5006C53.3305 13.895 53.7448 13.3213 54.2866 12.7795C54.8285 12.2377 55.45 11.9668 56.1511 11.9668C56.7248 11.9668 57.1391 12.158 57.3941 12.5405C57.681 12.923 57.8562 13.3851 57.92 13.9269C58.0156 14.4368 58.0634 14.9149 58.0634 15.3611C58.0634 17.2097 57.6969 19.0742 56.9638 20.9546C56.2308 22.835 55.4659 24.6039 54.6691 26.2612C54.6372 26.3887 54.5097 26.6118 54.2866 26.9305C54.0954 27.2173 53.9361 27.3607 53.8086 27.3607Z" fill="white"/>
</g>
<defs>
<filter id="filter0_d_99_2405" x="0.331543" y="0.158447" width="91.0933" height="45.9668" filterUnits="userSpaceOnUse" color-interpolation-filters="sRGB">
<feFlood flood-opacity="0" result="BackgroundImageFix"/>
<feColorMatrix in="SourceAlpha" type="matrix" values="0 0 0 0 0 0 0 0 0 0 0 0 0 0 0 0 0 0 127 0" result="hardAlpha"/>
<feOffset dy="4"/>
<feGaussianBlur stdDeviation="1"/>
<feComposite in2="hardAlpha" operator="out"/>
<feColorMatrix type="matrix" values="0 0 0 0 0 0 0 0 0 0 0 0 0 0 0 0 0 0 0.56 0"/>
<feBlend mode="normal" in2="BackgroundImageFix" result="effect1_dropShadow_99_2405"/>
<feBlend mode="normal" in="SourceGraphic" in2="effect1_dropShadow_99_2405" result="shape"/>
</filter>
</defs>
</svg>
