<svg width="393" height="83" viewBox="0 0 393 83" fill="none" xmlns="http://www.w3.org/2000/svg">
<path d="M346.956 47.5047C345.976 46.0348 345.139 44.9528 344.445 44.2587C343.791 43.5645 342.995 43.0337 342.056 42.6663C341.117 42.2988 339.831 42.0742 338.197 41.9926L334.339 41.7476V65.3271C334.339 68.2669 334.584 70.4309 335.074 71.8191C335.605 73.2073 336.299 74.126 337.156 74.5751C338.055 75.0243 339.382 75.3918 341.137 75.6776C342.403 75.8817 343.526 76.1063 344.506 76.3513C345.486 76.5963 346.506 76.9841 347.568 77.5149L347.446 80.6997H308.677L308.555 77.5149C309.657 76.9025 310.678 76.4738 311.617 76.2288C312.597 75.943 313.72 75.698 314.985 75.4938C316.619 75.2488 317.823 74.9018 318.599 74.4527C319.416 73.9627 320.048 72.9215 320.498 71.3291C320.947 69.7368 321.171 67.2053 321.171 63.7347V17.3107C321.171 14.4117 320.926 12.2477 320.436 10.8186C319.946 9.34876 319.232 8.34841 318.293 7.81762C317.394 7.246 315.965 6.65396 314.006 6.0415C311.923 5.46988 310.106 4.83701 308.555 4.14289L308.677 0.95813H336.911C344.547 0.95813 351.222 1.30519 356.939 1.9993C362.655 2.69342 367.759 4.53078 372.25 7.51139C376.782 10.492 379.048 15.0854 379.048 21.2916C379.048 25.1297 377.966 28.4573 375.802 31.2746C373.679 34.0511 370.923 36.2355 367.534 37.8279C364.186 39.4203 360.593 40.5023 356.755 41.0739C357.245 41.7272 359.674 45.1161 364.043 51.2406C367.269 55.8136 370.004 59.6313 372.25 62.6935C374.536 65.7558 376.803 68.6343 379.048 71.3291C380.396 72.7582 381.6 73.881 382.662 74.6976C383.723 75.5142 385.05 76.1675 386.643 76.6575C388.235 77.1475 390.236 77.3924 392.645 77.3924V80.8222C388.602 81.8021 385.009 82.2921 381.865 82.2921C377.537 82.2921 373.557 80.9651 369.923 78.3111C366.33 75.6572 363.206 72.5132 360.552 68.8793C357.939 65.2454 354.938 60.6112 351.549 54.9766C349.548 51.5469 348.017 49.0562 346.956 47.5047ZM337.401 37.6441C342.628 37.6441 347.139 37.3379 350.937 36.7255C354.734 36.113 357.98 34.6635 360.675 32.377C363.41 30.0905 364.778 26.6404 364.778 22.0266C364.778 16.9636 363.308 13.2276 360.368 10.8186C357.469 8.40966 354.06 6.93977 350.14 6.40897C346.221 5.83735 341.403 5.55154 335.686 5.55154H334.339V37.6441H337.401Z" fill="white"/>
<path d="M295.632 81.2509C294.979 81.3734 294.325 81.4347 293.672 81.4347C292.896 81.4347 291.733 81.3122 290.181 81.0672C288.629 80.8222 287.445 80.6997 286.629 80.6997H223.791L223.668 77.6987C224.934 77.0046 226.098 76.5146 227.159 76.2288C228.262 75.9022 229.466 75.6368 230.773 75.4326C232.406 75.1468 233.59 74.7793 234.325 74.3302C235.101 73.8811 235.693 72.9216 236.101 71.4517C236.51 69.9409 236.714 67.5728 236.714 64.3472V17.9844C236.714 14.7996 236.448 12.4519 235.918 10.9412C235.428 9.43044 234.693 8.38927 233.713 7.81765C232.733 7.20519 231.1 6.55191 228.813 5.85779C228.446 5.7353 227.731 5.51074 226.669 5.18409C225.649 4.85745 224.648 4.48998 223.668 4.08168L223.791 0.958158H286.261C286.833 0.958158 287.445 0.917327 288.099 0.835667C288.793 0.754006 289.283 0.692761 289.569 0.65193C290.793 0.447779 291.896 0.345703 292.876 0.345703C293.733 0.345703 294.489 0.427364 295.142 0.590685V19.638L291.957 19.7605C291.263 19.0664 290.691 18.2906 290.242 17.4332C289.793 16.5757 289.283 15.4529 288.711 14.0647C287.895 12.0232 287.078 10.4308 286.261 9.28754C285.486 8.14429 284.322 7.30727 282.77 6.77647C280.484 6.04153 277.646 5.57198 274.257 5.36783C270.868 5.16368 266.949 5.0616 262.498 5.0616C257.272 5.0616 253.148 5.24534 250.126 5.61281C249.963 7.45017 249.882 9.55293 249.882 11.9211V36.7867H267.52C270.746 36.7867 273.155 36.5418 274.747 36.0518C276.34 35.5618 277.564 34.7656 278.422 33.6632C279.32 32.5608 280.545 30.601 282.097 27.7837L283.015 26.13H286.506V52.4043L283.015 52.5881C281.709 49.0767 280.035 46.341 277.993 44.3812C275.992 42.4213 273.298 41.4414 269.909 41.4414H249.882V62.0811C249.882 66.3683 250.371 69.5326 251.351 71.5742C252.372 73.6157 253.822 74.9426 255.7 75.5551C257.619 76.1267 260.334 76.4125 263.845 76.4125H269.848C274.992 76.4125 279.422 75.8409 283.138 74.6977C286.894 73.5136 289.671 71.125 291.467 67.532L292.325 65.6333C293.06 64.041 293.652 62.8569 294.101 62.0811C294.55 61.2645 295.121 60.4887 295.816 59.7538H299.674L295.632 81.2509Z" fill="white"/>
<path d="M181.103 65.3271C182.409 61.8157 184.655 56.3853 187.84 49.0358C192.127 38.9099 195.373 30.9276 197.578 25.0888C199.783 19.2501 200.885 15.0446 200.885 12.4723C200.885 10.9207 200.477 9.69581 199.66 8.79755C198.844 7.89928 197.843 7.246 196.659 6.83769C195.475 6.38856 193.944 5.95984 192.066 5.55154C190.637 5.26573 189.555 5.00033 188.82 4.75535C188.697 4.18372 188.636 3.59168 188.636 2.97923C188.636 2.28511 188.697 1.61141 188.82 0.95813H220.423C220.545 2.06055 220.606 3.18338 220.606 4.32663C219.79 4.93908 218.789 5.53112 217.605 6.10275C216.462 6.63354 215.339 7.14392 214.237 7.63388L212.706 8.36883C211.277 9.02211 209.97 10.2062 208.786 11.9211C207.643 13.6359 206.663 15.4733 205.846 17.4332C205.07 19.3522 204.152 21.802 203.09 24.7826C202.11 27.3957 201.498 29.029 201.253 29.6822C198.272 36.6642 194.434 46.0756 189.739 57.9164C185.084 69.7572 182.022 77.5762 180.552 81.3734C180.348 81.4142 179.898 81.4959 179.204 81.6184C178.551 81.7817 178 81.8634 177.551 81.8634C176.448 81.8634 175.611 81.8225 175.04 81.7409C166.057 61.0807 156.013 38.522 144.907 14.0647C143.927 11.9006 142.927 10.247 141.906 9.10377C140.885 7.96053 139.742 7.10309 138.476 6.53147C137.21 5.91901 135.312 5.2249 132.78 4.44912L132.903 0.95813H168.976C168.976 1.3256 168.997 1.65224 169.038 1.93806C169.078 2.18304 169.119 2.40761 169.16 2.61176C169.201 2.85674 169.242 3.14255 169.283 3.46919C169.323 3.79584 169.344 4.18372 169.344 4.63286C168.446 4.91867 167.649 5.12282 166.955 5.24531C164.179 5.93943 161.994 6.67437 160.402 7.45015C158.81 8.22592 158.013 9.41 158.013 11.0024C158.013 12.0231 158.993 14.82 160.953 19.393C162.913 23.966 166.016 31.0092 170.262 40.5227C175.53 52.1185 179.143 60.3866 181.103 65.3271Z" fill="white"/>
<path d="M115.08 64.7759C115.08 67.879 115.345 70.1655 115.876 71.6354C116.448 73.1053 117.203 74.0852 118.142 74.5751C119.122 75.0651 120.653 75.4938 122.736 75.8613C125.145 76.2696 127.288 76.8004 129.166 77.4537L129.044 80.6997H88.3158V77.5149C89.4999 76.9841 90.5614 76.6167 91.5005 76.4125C92.4805 76.1675 93.7054 75.9226 95.1753 75.6776C97.0126 75.4326 98.36 75.0855 99.2175 74.6364C100.075 74.1464 100.728 73.0848 101.177 71.4516C101.667 69.8184 101.912 67.2257 101.912 63.6735V17.6169C101.912 14.2688 101.626 11.7986 101.055 10.2062C100.483 8.61381 99.7278 7.59305 98.7888 7.14392C97.8905 6.69479 96.5431 6.34773 94.7466 6.10275C93.2767 5.85777 92.0518 5.61278 91.0718 5.3678C90.1327 5.12282 89.1324 4.6941 88.0708 4.08165L88.1933 0.95813H128.799L128.922 4.14289C128.064 4.46954 126.839 4.81659 125.247 5.18407C123.001 5.75569 121.205 6.32731 119.857 6.89894C118.51 7.47056 117.367 8.36883 116.427 9.59374C115.529 10.7778 115.08 12.411 115.08 14.4934V64.7759Z" fill="white"/>
<path d="M35.8898 44.2587C36.5839 44.9528 37.421 46.0348 38.4009 47.5047C39.4625 49.0562 40.9936 51.5469 42.9943 54.9766C46.3832 60.6112 49.3842 65.2454 51.9974 68.8793C54.6513 72.5132 57.7749 75.6572 61.3679 78.3111C65.0018 80.9651 68.9828 82.2921 73.3108 82.2921C76.4547 82.2921 80.0478 81.8021 84.09 80.8222V77.3924C81.681 77.3924 79.6803 77.1475 78.0879 76.6575C76.4956 76.1675 75.1686 75.5142 74.107 74.6976C73.0454 73.881 71.8409 72.7582 70.4935 71.3291C68.2478 68.6343 65.9818 65.7558 63.6953 62.6935C61.4496 59.6313 58.714 55.8136 55.4884 51.2406C51.1195 45.1161 48.6901 41.7272 48.2002 41.0739C52.0382 40.5023 55.6313 39.4203 58.9794 37.8279C62.3683 36.2355 65.1243 34.0511 67.2475 31.2746C69.4115 28.4573 70.4935 25.1297 70.4935 21.2916C70.4935 15.0854 68.2274 10.492 63.6953 7.51139C59.2039 4.53078 54.1001 2.69342 48.3839 1.9993C42.6677 1.30519 35.9919 0.95813 28.3566 0.95813H0.122491L0 4.14289C1.55155 4.83701 3.3685 5.46988 5.45084 6.0415C7.4107 6.65396 8.83976 7.246 9.73803 7.81762C10.6771 8.34841 11.3917 9.34876 11.8816 10.8186C12.3716 12.2477 12.6166 14.4117 12.6166 17.3107L25.7843 24.3458V5.55154H27.1317C32.848 5.55154 37.6659 5.83735 41.5857 6.40897C45.5054 6.93977 48.9147 8.40966 51.8136 10.8186C54.7534 13.2276 56.2233 16.9636 56.2233 22.0266C56.2233 26.6404 54.8555 30.0905 52.1199 32.377C49.4251 34.6635 46.1791 36.113 42.3818 36.7255C41.6169 36.8488 40.8229 36.9598 40 37.0583L35.8898 44.2587Z" fill="white"/>
<path d="M39.0133 77.5149C37.9518 76.9841 36.931 76.5963 35.9511 76.3513L31.5 80.6997H38.8909L39.0133 77.5149Z" fill="white"/>
</svg>
