<svg width="223" height="45" viewBox="0 0 223 45" fill="none" xmlns="http://www.w3.org/2000/svg">
<g filter="url(#filter0_d_99_2404)">
<path d="M2.86328 27.9536C3.05859 28.2856 3.21484 28.6274 3.33203 28.979C3.46875 29.3306 3.61523 29.7896 3.77148 30.356C3.84961 30.5513 3.91797 30.7759 3.97656 31.0298C4.66016 33.2759 5.95898 35.0044 7.87305 36.2153C9.78711 37.4263 11.9746 38.0317 14.4355 38.0317C15.7246 38.0317 16.9746 37.8071 18.1855 37.3579C19.416 36.8892 20.4219 36.1958 21.2031 35.2778C22.0039 34.3403 22.4043 33.2075 22.4043 31.8794C22.4043 30.7271 21.9941 29.6528 21.1738 28.6567C20.373 27.6606 19.3672 26.772 18.1562 25.9907C16.9648 25.1899 15.3145 24.2036 13.2051 23.0317C10.7246 21.6646 8.71289 20.4536 7.16992 19.3989C5.62695 18.3442 4.31836 17.0942 3.24414 15.6489C2.16992 14.1841 1.63281 12.5337 1.63281 10.6978C1.63281 8.43213 2.26758 6.56689 3.53711 5.10205C4.82617 3.61768 6.4668 2.54346 8.45898 1.87939C10.4707 1.1958 12.5898 0.854004 14.8164 0.854004C16.7305 0.854004 18.6348 1.08838 20.5293 1.55713C22.4434 2.02588 24.2598 2.69971 25.9785 3.57861L26.3594 11.9282H24.543C24.3086 11.479 24.0352 10.7661 23.7227 9.78955L23.4297 8.93994C22.7656 7.02588 21.6133 5.58057 19.9727 4.604C18.3516 3.60791 16.4766 3.10986 14.3477 3.10986C13.2539 3.10986 12.1504 3.29541 11.0371 3.6665C9.92383 4.0376 8.98633 4.61377 8.22461 5.39502C7.48242 6.15674 7.11133 7.104 7.11133 8.23682C7.11133 9.2915 7.50195 10.2778 8.2832 11.1958C9.06445 12.1138 10.0312 12.9536 11.1836 13.7153C12.3359 14.4575 13.9277 15.395 15.959 16.5278C18.5566 17.9731 20.6562 19.2524 22.2578 20.3657C23.8789 21.4595 25.2559 22.7876 26.3887 24.3501C27.541 25.9126 28.1172 27.6802 28.1172 29.6528C28.1172 32.0942 27.4434 34.1353 26.0957 35.7759C24.748 37.397 23 38.5884 20.8516 39.3501C18.7227 40.1118 16.457 40.4927 14.0547 40.4927C11.9062 40.4927 9.5918 40.229 7.11133 39.7017C4.65039 39.1548 2.6582 38.4126 1.13477 37.4751V28.0122L2.86328 27.9536ZM54.8945 0.854004C58.5664 0.854004 61.9355 1.67432 65.002 3.31494C68.0684 4.95557 70.5 7.28955 72.2969 10.3169C74.1133 13.3247 75.0215 16.8013 75.0215 20.7466C75.0215 24.6138 74.084 28.0513 72.209 31.0591C70.3535 34.0474 67.8438 36.3716 64.6797 38.0317C61.5156 39.6724 58.0586 40.4927 54.3086 40.4927C50.8516 40.4927 47.6191 39.7017 44.6113 38.1196C41.6035 36.5376 39.1816 34.272 37.3457 31.3228C35.5293 28.3735 34.6211 24.9556 34.6211 21.0688C34.6211 16.7915 35.5781 13.1294 37.4922 10.0825C39.4258 7.03564 41.9355 4.74072 45.0215 3.19775C48.127 1.63525 51.418 0.854004 54.8945 0.854004ZM55.8613 38.2368C58.2051 38.2368 60.3145 37.6118 62.1895 36.3618C64.0645 35.1118 65.5293 33.3052 66.584 30.9419C67.6582 28.5786 68.1953 25.7954 68.1953 22.5923C68.1953 18.9595 67.5898 15.6685 66.3789 12.7192C65.168 9.75049 63.4688 7.40674 61.2812 5.68799C59.1133 3.96924 56.6426 3.10986 53.8691 3.10986C51.584 3.10986 49.4941 3.70557 47.5996 4.89697C45.7246 6.06885 44.2305 7.82666 43.1172 10.1704C42.0039 12.5142 41.4473 15.3364 41.4473 18.6372C41.4473 22.3091 42.0625 25.6392 43.293 28.6274C44.5234 31.6157 46.2324 33.9692 48.4199 35.688C50.627 37.3872 53.1074 38.2368 55.8613 38.2368ZM98.5762 3.10986C97.7754 3.40283 96.7402 3.67627 95.4707 3.93018C94.416 4.14502 93.6543 4.38916 93.1855 4.6626C92.7363 4.9165 92.3848 5.42432 92.1309 6.18604C91.8965 6.92822 91.7793 8.11963 91.7793 9.76025V22.27C91.7793 26.9771 92.7266 30.6685 94.6211 33.3442C96.5352 36.0005 99.7773 37.3286 104.348 37.3286C112.727 37.3286 116.916 32.1431 116.916 21.772V10.2583C116.916 8.52002 116.789 7.25049 116.535 6.44971C116.301 5.64893 115.93 5.10205 115.422 4.80908C114.914 4.49658 114.064 4.19385 112.873 3.90088C111.74 3.60791 110.812 3.33447 110.09 3.08057V1.58643H125.881L125.939 3.10986C125.646 3.26611 125.324 3.39307 124.973 3.49072C124.641 3.56885 124.191 3.65674 123.625 3.75439C122.883 3.89111 122.287 4.02783 121.838 4.16455C121.389 4.28174 120.969 4.49658 120.578 4.80908C120.207 5.10205 119.943 5.51221 119.787 6.03955C119.475 7.11377 119.318 8.36377 119.318 9.78955C119.318 10.7271 119.338 12.2114 119.377 14.2427C119.416 16.2739 119.436 17.7974 119.436 18.813C119.436 23.2661 119.045 27.0259 118.264 30.0923C117.502 33.1587 115.871 35.6587 113.371 37.5923C110.891 39.5259 107.229 40.4927 102.385 40.4927C99.5723 40.4927 96.9551 40.0532 94.5332 39.1743C92.1113 38.2759 90.0996 36.8892 88.498 35.0142C86.916 33.1392 85.9785 30.7954 85.6855 27.9829C85.4512 25.9517 85.334 23.3833 85.334 20.2778C85.334 18.481 85.3633 16.7036 85.4219 14.9458C85.4609 12.6021 85.4805 10.8638 85.4805 9.73096C85.4805 8.28564 85.3828 7.1626 85.1875 6.36182C84.9922 5.58057 84.5039 4.99463 83.7227 4.604C82.9609 4.21338 81.9258 3.85205 80.6172 3.52002C79.9727 3.34424 79.4648 3.19775 79.0938 3.08057L79.1816 1.58643H98.5176L98.5762 3.10986ZM135.842 7.76807C135.334 6.94775 134.807 6.29346 134.26 5.80518C133.713 5.31689 133.166 4.9458 132.619 4.69189C132.072 4.43799 131.34 4.15479 130.422 3.84229C129.543 3.54932 128.859 3.30518 128.371 3.10986V1.58643H138.596L166.164 30.0923V11.6646C166.164 9.80908 165.9 8.11963 165.373 6.59619C165.158 5.97119 164.865 5.48291 164.494 5.13135C164.123 4.77979 163.723 4.52588 163.293 4.36963C162.863 4.21338 162.287 4.04736 161.564 3.87158C161.447 3.83252 161.145 3.75439 160.656 3.63721C160.188 3.50049 159.758 3.33447 159.367 3.13916C159.367 2.63135 159.396 2.11377 159.455 1.58643H174.895V3.16846C174.348 3.42236 173.781 3.6665 173.195 3.90088C171.77 4.52588 170.783 5.04346 170.236 5.45361C169.689 5.86377 169.299 6.5083 169.064 7.38721C168.85 8.24658 168.732 9.6626 168.713 11.6353C168.713 12.6313 168.693 14.106 168.654 16.0591C168.635 17.5435 168.615 19.3989 168.596 21.6255C168.576 23.8325 168.566 26.4204 168.566 29.3892C168.566 30.6782 168.684 32.5923 168.918 35.1313C169.113 37.2798 169.221 38.9009 169.24 39.9946C168.869 40.1313 168.391 40.1997 167.805 40.1997C167.18 40.1997 166.623 40.1313 166.135 39.9946C164.729 38.2759 163.127 36.4497 161.33 34.5161L138.186 10.1704V30.7368C138.186 32.0454 138.352 33.3638 138.684 34.6919C138.84 35.356 139.123 35.8735 139.533 36.2446C139.943 36.5962 140.383 36.8501 140.852 37.0063C141.34 37.1626 141.994 37.3188 142.814 37.4751C143.947 37.6509 144.787 37.8853 145.334 38.1782C145.334 38.686 145.305 39.2036 145.246 39.731H128.723C128.684 39.3794 128.664 38.8521 128.664 38.1489L130.012 37.7974C131.262 37.4849 132.248 37.1821 132.971 36.8892C133.713 36.5962 134.348 36.1177 134.875 35.4536C135.422 34.7896 135.744 33.8813 135.842 32.729V7.76807ZM185.441 10.1411C185.441 8.98877 185.344 7.80713 185.148 6.59619C185.031 6.01025 184.738 5.53174 184.27 5.16064C183.801 4.77002 183.264 4.46729 182.658 4.25244C182.072 4.01807 181.311 3.77393 180.373 3.52002C179.67 3.32471 179.172 3.17822 178.879 3.08057L178.938 1.58643H196.281C201.164 1.58643 205.461 2.22119 209.172 3.49072C212.883 4.76025 215.812 6.80127 217.961 9.61377C220.109 12.4067 221.184 16.02 221.184 20.4536C221.184 23.8521 220.363 27.0259 218.723 29.9751C217.102 32.9048 214.689 35.2681 211.486 37.0649C208.303 38.8423 204.475 39.731 200.002 39.731H178.938L178.879 38.2075L180.432 37.7974C181.525 37.5435 182.404 37.2896 183.068 37.0356C183.732 36.7817 184.289 36.3618 184.738 35.7759C185.207 35.1704 185.441 34.3501 185.441 33.3149V10.1411ZM191.74 31.7915C191.74 33.4907 192.062 34.8286 192.707 35.8052C193.371 36.7817 194.494 37.3091 196.076 37.3872C197.17 37.4458 198.293 37.4751 199.445 37.4751C202.648 37.4751 205.363 36.7329 207.59 35.2485C209.816 33.7446 211.477 31.8013 212.57 29.4185C213.664 27.0356 214.211 24.5259 214.211 21.8892C214.211 18.3931 213.586 15.2974 212.336 12.6021C211.086 9.88721 209.143 7.74854 206.506 6.18604C203.889 4.62354 200.607 3.84229 196.662 3.84229H191.74V31.7915Z" fill="white"/>
</g>
<defs>
<filter id="filter0_d_99_2404" x="0.0347656" y="0.854004" width="222.249" height="43.7387" filterUnits="userSpaceOnUse" color-interpolation-filters="sRGB">
<feFlood flood-opacity="0" result="BackgroundImageFix"/>
<feColorMatrix in="SourceAlpha" type="matrix" values="0 0 0 0 0 0 0 0 0 0 0 0 0 0 0 0 0 0 127 0" result="hardAlpha"/>
<feOffset dy="3"/>
<feGaussianBlur stdDeviation="0.55"/>
<feComposite in2="hardAlpha" operator="out"/>
<feColorMatrix type="matrix" values="0 0 0 0 0 0 0 0 0 0 0 0 0 0 0 0 0 0 0.56 0"/>
<feBlend mode="normal" in2="BackgroundImageFix" result="effect1_dropShadow_99_2404"/>
<feBlend mode="normal" in="SourceGraphic" in2="effect1_dropShadow_99_2404" result="shape"/>
</filter>
</defs>
</svg>
