<svg width="839" height="91" viewBox="0 0 839 91" fill="none" xmlns="http://www.w3.org/2000/svg">
<g filter="url(#filter0_d_103_7505)">
<path d="M259 82.3457H201.125L201 79.2832C202.292 78.5749 203.479 78.0749 204.562 77.7832C205.688 77.4499 206.917 77.179 208.25 76.9707C209.917 76.679 211.125 76.304 211.875 75.8457C212.667 75.3874 213.271 74.4082 213.688 72.9082C214.104 71.3665 214.312 68.9499 214.312 65.6582V18.3457C214.312 15.0957 214.042 12.6999 213.5 11.1582C213 9.61654 212.25 8.55404 211.25 7.9707C210.25 7.3457 208.583 6.67904 206.25 5.9707C205.875 5.8457 205.146 5.61654 204.062 5.2832C203.021 4.94987 202 4.57487 201 4.1582L201.125 0.970703H264.875C265.458 0.970703 266.083 0.929036 266.75 0.845703C267.458 0.76237 267.958 0.69987 268.25 0.658203C269.5 0.44987 270.625 0.345703 271.625 0.345703C272.5 0.345703 273.271 0.429036 273.938 0.595703V20.0332L270.688 20.1582C269.979 19.4499 269.396 18.6582 268.938 17.7832C268.479 16.9082 267.958 15.7624 267.375 14.3457C266.542 12.2624 265.708 10.6374 264.875 9.4707C264.083 8.30404 262.896 7.44987 261.312 6.9082C258.979 6.1582 256.083 5.67904 252.625 5.4707C249.167 5.26237 245.167 5.1582 240.625 5.1582C235.292 5.1582 231.083 5.3457 228 5.7207C227.833 7.5957 227.75 9.74154 227.75 12.1582V37.5332H245.75C249.042 37.5332 251.5 37.2832 253.125 36.7832C254.75 36.2832 256 35.4707 256.875 34.3457C257.792 33.2207 259.042 31.2207 260.625 28.3457L261.562 26.6582H265.125V53.4707L261.562 53.6582C260.229 50.0749 258.521 47.2832 256.438 45.2832C254.396 43.2832 251.646 42.2832 248.188 42.2832H227.75V63.3457C227.75 67.7207 228.25 70.9499 229.25 73.0332C230.292 75.1165 231.771 76.4707 233.688 77.0957C235.646 77.679 238.417 77.9707 242 77.9707H248.125C253.375 77.9707 259.708 77.5124 263.5 76.3457C263.5 76.3457 261.625 79.2832 259 82.3457Z" fill="white"/>
<path d="M107.625 17.4707V65.7832L107 70.8457L108.5 71.8457V74.3457L110.5 74.8457L112 77.0332L115 77.8457L116 75.9082L115.5 72.3457L116.5 68.3457L121.062 73.1582V43.2832H165.688V66.5957C165.688 69.554 165.438 71.7415 164.938 73.1582C164.479 74.5332 163.833 75.4499 163 75.9082C162.208 76.3665 160.979 76.7415 159.312 77.0332C157.854 77.3249 156.688 77.5957 155.812 77.8457C154.979 78.0957 154.042 78.5124 153 79.0957L153.125 82.3457H192.438V79.0957C190.938 78.554 188.979 78.0124 186.562 77.4707C184.396 77.0124 182.833 76.5332 181.875 76.0332C180.958 75.4915 180.271 74.4707 179.812 72.9707C179.354 71.429 179.125 68.9915 179.125 65.6582V17.9707C179.125 14.7207 179.375 12.3249 179.875 10.7832C180.417 9.24154 181.188 8.17904 182.188 7.5957C183.188 7.01237 184.833 6.4082 187.125 5.7832C188.833 5.36654 190.604 4.8457 192.438 4.2207L192.312 0.970703H153.125L153 4.1582C154.625 4.94987 156.562 5.63737 158.812 6.2207C160.646 6.7207 162 7.24154 162.875 7.7832C163.75 8.2832 164.438 9.2207 164.938 10.5957C165.438 11.9707 165.688 14.0749 165.688 16.9082V37.8457H121.062V17.5332C121.062 14.4499 121.312 12.1582 121.812 10.6582C122.354 9.1582 123.083 8.1582 124 7.6582C124.958 7.11654 126.417 6.63737 128.375 6.2207C130.833 5.7207 133 5.05404 134.875 4.2207L134.75 0.970703H94.5625L94.4375 4.1582C95.4375 4.61654 96.4792 5.01237 97.5625 5.3457C98.6458 5.67904 99.625 5.94987 100.5 6.1582C102.417 6.6582 103.833 7.17904 104.75 7.7207C105.667 8.2207 106.375 9.2207 106.875 10.7207C107.375 12.179 107.625 14.429 107.625 17.4707Z" fill="white"/>
<path d="M21.25 6.0957C23.5 5.76237 26.5417 5.5957 30.375 5.5957H39.5V22.3457L43 23.8457L48 27.3457L47 29.8457L44 31.3457L46 33.3457L51 39.3457L52.9375 36.4395V5.5957H62.5C64.6667 5.5957 66.4583 5.63737 67.875 5.7207C69.3333 5.76237 70.7708 5.88737 72.1875 6.0957C74.1458 6.38737 75.8333 7.36654 77.25 9.0332C78.7083 10.6999 80.2708 13.0124 81.9375 15.9707C82.1458 16.304 82.5833 17.054 83.25 18.2207C83.9167 19.3457 84.5625 20.2832 85.1875 21.0332H88.1875L86.1875 0.470703C80.9792 0.804036 74.1667 0.970703 65.75 0.970703H57.5625L33.1875 1.0332C22.3125 1.0332 13.4375 0.88737 6.5625 0.595703L5 20.9707H7.875C8.79167 19.8457 9.875 18.179 11.125 15.9707C12.3333 13.929 13.3542 12.304 14.1875 11.0957C15.0625 9.88737 16.0833 8.80404 17.25 7.8457C18.4583 6.88737 19.7917 6.30404 21.25 6.0957Z" fill="white"/>
<path d="M788.956 47.5047C787.976 46.0348 787.139 44.9528 786.445 44.2587C785.791 43.5645 784.995 43.0337 784.056 42.6663C783.117 42.2988 781.831 42.0742 780.197 41.9926L776.339 41.7476V65.3271C776.339 68.2669 776.584 70.4309 777.074 71.8191C777.605 73.2073 778.299 74.126 779.156 74.5751C780.055 75.0243 781.382 75.3918 783.137 75.6776C784.403 75.8817 785.526 76.1063 786.506 76.3513C787.486 76.5963 788.506 76.9841 789.568 77.5149L789.446 80.6997H750.677L750.555 77.5149C751.657 76.9025 752.678 76.4738 753.617 76.2288C754.597 75.943 755.72 75.698 756.985 75.4938C758.619 75.2488 759.823 74.9018 760.599 74.4527C761.416 73.9627 762.048 72.9215 762.498 71.3291C762.947 69.7368 763.171 67.2053 763.171 63.7347V17.3107C763.171 14.4117 762.926 12.2477 762.436 10.8186C761.946 9.34876 761.232 8.34841 760.293 7.81762C759.394 7.246 757.965 6.65396 756.006 6.0415C753.923 5.46988 752.106 4.83701 750.555 4.14289L750.677 0.95813H778.911C786.547 0.95813 793.222 1.30519 798.939 1.9993C804.655 2.69342 809.759 4.53078 814.25 7.51139C818.782 10.492 821.048 15.0854 821.048 21.2916C821.048 25.1297 819.966 28.4573 817.802 31.2746C815.679 34.0511 812.923 36.2355 809.534 37.8279C806.186 39.4203 802.593 40.5023 798.755 41.0739C799.245 41.7272 801.674 45.1161 806.043 51.2406C809.269 55.8136 812.004 59.6313 814.25 62.6935C816.536 65.7558 818.803 68.6343 821.048 71.3291C822.396 72.7582 823.6 73.881 824.662 74.6976C825.723 75.5142 827.05 76.1675 828.643 76.6575C830.235 77.1475 832.236 77.3924 834.645 77.3924V80.8222C830.602 81.8021 827.009 82.2921 823.865 82.2921C819.537 82.2921 815.557 80.9651 811.923 78.3111C808.33 75.6572 805.206 72.5132 802.552 68.8793C799.939 65.2454 796.938 60.6112 793.549 54.9766C791.548 51.5469 790.017 49.0562 788.956 47.5047ZM779.401 37.6441C784.628 37.6441 789.139 37.3379 792.937 36.7255C796.734 36.113 799.98 34.6635 802.675 32.377C805.41 30.0905 806.778 26.6404 806.778 22.0266C806.778 16.9636 805.308 13.2276 802.368 10.8186C799.469 8.40966 796.06 6.93977 792.14 6.40897C788.221 5.83735 783.403 5.55154 777.686 5.55154H776.339V37.6441H779.401Z" fill="white"/>
<path d="M737.632 81.2509C736.979 81.3734 736.325 81.4347 735.672 81.4347C734.896 81.4347 733.733 81.3122 732.181 81.0672C730.629 80.8222 729.445 80.6997 728.629 80.6997H665.791L665.668 77.6987C666.934 77.0046 668.098 76.5146 669.159 76.2288C670.262 75.9022 671.466 75.6368 672.773 75.4326C674.406 75.1468 675.59 74.7793 676.325 74.3302C677.101 73.8811 677.693 72.9216 678.101 71.4517C678.51 69.9409 678.714 67.5728 678.714 64.3472V17.9844C678.714 14.7996 678.448 12.4519 677.918 10.9412C677.428 9.43044 676.693 8.38927 675.713 7.81765C674.733 7.20519 673.1 6.55191 670.813 5.85779C670.446 5.7353 669.731 5.51074 668.669 5.18409C667.649 4.85745 666.648 4.48998 665.668 4.08168L665.791 0.958158H728.261C728.833 0.958158 729.445 0.917327 730.099 0.835667C730.793 0.754006 731.283 0.692761 731.569 0.65193C732.793 0.447779 733.896 0.345703 734.876 0.345703C735.733 0.345703 736.489 0.427364 737.142 0.590685V19.638L733.957 19.7605C733.263 19.0664 732.691 18.2906 732.242 17.4332C731.793 16.5757 731.283 15.4529 730.711 14.0647C729.895 12.0232 729.078 10.4308 728.261 9.28754C727.486 8.14429 726.322 7.30727 724.77 6.77647C722.484 6.04153 719.646 5.57198 716.257 5.36783C712.868 5.16368 708.949 5.0616 704.498 5.0616C699.272 5.0616 695.148 5.24534 692.126 5.61281C691.963 7.45017 691.882 9.55293 691.882 11.9211V36.7867H709.52C712.746 36.7867 715.155 36.5418 716.747 36.0518C718.34 35.5618 719.564 34.7656 720.422 33.6632C721.32 32.5608 722.545 30.601 724.097 27.7837L725.015 26.13H728.506V52.4043L725.015 52.5881C723.709 49.0767 722.035 46.341 719.993 44.3812C717.992 42.4213 715.298 41.4414 711.909 41.4414H691.882V62.0811C691.882 66.3683 692.371 69.5326 693.351 71.5742C694.372 73.6157 695.822 74.9426 697.7 75.5551C699.619 76.1267 702.334 76.4125 705.845 76.4125H711.848C716.992 76.4125 721.422 75.8409 725.138 74.6977C728.894 73.5136 731.671 71.125 733.467 67.532L734.325 65.6333C735.06 64.041 735.652 62.8569 736.101 62.0811C736.55 61.2645 737.121 60.4887 737.816 59.7538H741.674L737.632 81.2509Z" fill="white"/>
<path d="M623.103 65.3271C624.409 61.8157 626.655 56.3853 629.84 49.0358C634.127 38.9099 637.373 30.9276 639.578 25.0888C641.783 19.2501 642.885 15.0446 642.885 12.4723C642.885 10.9207 642.477 9.69581 641.66 8.79755C640.844 7.89928 639.843 7.246 638.659 6.83769C637.475 6.38856 635.944 5.95984 634.066 5.55154C632.637 5.26573 631.555 5.00033 630.82 4.75535C630.697 4.18372 630.636 3.59168 630.636 2.97923C630.636 2.28511 630.697 1.61141 630.82 0.95813H662.423C662.545 2.06055 662.606 3.18338 662.606 4.32663C661.79 4.93908 660.789 5.53112 659.605 6.10275C658.462 6.63354 657.339 7.14392 656.237 7.63388L654.706 8.36883C653.277 9.02211 651.97 10.2062 650.786 11.9211C649.643 13.6359 648.663 15.4733 647.846 17.4332C647.07 19.3522 646.152 21.802 645.09 24.7826C644.11 27.3957 643.498 29.029 643.253 29.6822C640.272 36.6642 636.434 46.0756 631.739 57.9164C627.084 69.7572 624.022 77.5762 622.552 81.3734C622.348 81.4142 621.898 81.4959 621.204 81.6184C620.551 81.7817 620 81.8634 619.551 81.8634C618.448 81.8634 617.611 81.8225 617.04 81.7409C608.057 61.0807 598.013 38.522 586.907 14.0647C585.927 11.9006 584.927 10.247 583.906 9.10377C582.885 7.96053 581.742 7.10309 580.476 6.53147C579.21 5.91901 577.312 5.2249 574.78 4.44912L574.903 0.95813H610.976C610.976 1.3256 610.997 1.65224 611.038 1.93806C611.078 2.18304 611.119 2.40761 611.16 2.61176C611.201 2.85674 611.242 3.14255 611.283 3.46919C611.323 3.79584 611.344 4.18372 611.344 4.63286C610.446 4.91867 609.649 5.12282 608.955 5.24531C606.179 5.93943 603.994 6.67437 602.402 7.45015C600.81 8.22592 600.013 9.41 600.013 11.0024C600.013 12.0231 600.993 14.82 602.953 19.393C604.913 23.966 608.016 31.0092 612.262 40.5227C617.53 52.1185 621.143 60.3866 623.103 65.3271Z" fill="white"/>
<path d="M557.08 64.7759C557.08 67.879 557.345 70.1655 557.876 71.6354C558.448 73.1053 559.203 74.0852 560.142 74.5751C561.122 75.0651 562.653 75.4938 564.736 75.8613C567.145 76.2696 569.288 76.8004 571.166 77.4537L571.044 80.6997H530.316V77.5149C531.5 76.9841 532.561 76.6167 533.501 76.4125C534.48 76.1675 535.705 75.9226 537.175 75.6776C539.013 75.4326 540.36 75.0855 541.217 74.6364C542.075 74.1464 542.728 73.0848 543.177 71.4516C543.667 69.8184 543.912 67.2257 543.912 63.6735V17.6169C543.912 14.2688 543.626 11.7986 543.055 10.2062C542.483 8.61381 541.728 7.59305 540.789 7.14392C539.89 6.69479 538.543 6.34773 536.747 6.10275C535.277 5.85777 534.052 5.61278 533.072 5.3678C532.133 5.12282 531.132 4.6941 530.071 4.08165L530.193 0.95813H570.799L570.922 4.14289C570.064 4.46954 568.839 4.81659 567.247 5.18407C565.001 5.75569 563.205 6.32731 561.857 6.89894C560.51 7.47056 559.367 8.36883 558.427 9.59374C557.529 10.7778 557.08 12.411 557.08 14.4934V64.7759Z" fill="white"/>
<path d="M477.89 44.2587C478.584 44.9528 479.421 46.0348 480.401 47.5047C481.462 49.0562 482.994 51.5469 484.994 54.9766C488.383 60.6112 491.384 65.2454 493.997 68.8793C496.651 72.5132 499.775 75.6572 503.368 78.3111C507.002 80.9651 510.983 82.2921 515.311 82.2921C518.455 82.2921 522.048 81.8021 526.09 80.8222V77.3924C523.681 77.3924 521.68 77.1475 520.088 76.6575C518.496 76.1675 517.169 75.5142 516.107 74.6976C515.045 73.881 513.841 72.7582 512.494 71.3291C510.248 68.6343 507.982 65.7558 505.695 62.6935C503.45 59.6313 500.714 55.8136 497.488 51.2406C493.12 45.1161 490.69 41.7272 490.2 41.0739C494.038 40.5023 497.631 39.4203 500.979 37.8279C504.368 36.2355 507.124 34.0511 509.247 31.2746C511.412 28.4573 512.494 25.1297 512.494 21.2916C512.494 15.0854 510.227 10.492 505.695 7.51139C501.204 4.53078 496.1 2.69342 490.384 1.9993C484.668 1.30519 477.992 0.95813 470.357 0.95813H442.122L442 4.14289C443.552 4.83701 445.368 5.46988 447.451 6.0415C449.411 6.65396 450.84 7.246 451.738 7.81762C452.677 8.34841 453.392 9.34876 453.882 10.8186C454.372 12.2477 454.617 14.4117 454.617 17.3107L467.784 24.3458V5.55154H469.132C474.848 5.55154 479.666 5.83735 483.586 6.40897C487.505 6.93977 490.915 8.40966 493.814 10.8186C496.753 13.2276 498.223 16.9636 498.223 22.0266C498.223 26.6404 496.855 30.0905 494.12 32.377C491.425 34.6635 488.179 36.113 484.382 36.7255C483.617 36.8488 482.823 36.9598 482 37.0583L477.89 44.2587Z" fill="white"/>
<path d="M481.013 77.5149C479.952 76.9841 478.931 76.5963 477.951 76.3513L473.5 80.6997H480.891L481.013 77.5149Z" fill="white"/>
</g>
<defs>
<filter id="filter0_d_103_7505" x="0.7" y="0.0457029" width="838.245" height="90.6" filterUnits="userSpaceOnUse" color-interpolation-filters="sRGB">
<feFlood flood-opacity="0" result="BackgroundImageFix"/>
<feColorMatrix in="SourceAlpha" type="matrix" values="0 0 0 0 0 0 0 0 0 0 0 0 0 0 0 0 0 0 127 0" result="hardAlpha"/>
<feOffset dy="4"/>
<feGaussianBlur stdDeviation="2.15"/>
<feComposite in2="hardAlpha" operator="out"/>
<feColorMatrix type="matrix" values="0 0 0 0 0 0 0 0 0 0 0 0 0 0 0 0 0 0 1 0"/>
<feBlend mode="normal" in2="BackgroundImageFix" result="effect1_dropShadow_103_7505"/>
<feBlend mode="normal" in="SourceGraphic" in2="effect1_dropShadow_103_7505" result="shape"/>
</filter>
</defs>
</svg>
