<svg width="269" height="83" viewBox="0 0 269 83" fill="none" xmlns="http://www.w3.org/2000/svg">
<path d="M254 82.3457H196.125L196 79.2832C197.292 78.5749 198.479 78.0749 199.562 77.7832C200.688 77.4499 201.917 77.179 203.25 76.9707C204.917 76.679 206.125 76.304 206.875 75.8457C207.667 75.3874 208.271 74.4082 208.688 72.9082C209.104 71.3665 209.312 68.9499 209.312 65.6582V18.3457C209.312 15.0957 209.042 12.6999 208.5 11.1582C208 9.61654 207.25 8.55404 206.25 7.9707C205.25 7.3457 203.583 6.67904 201.25 5.9707C200.875 5.8457 200.146 5.61654 199.062 5.2832C198.021 4.94987 197 4.57487 196 4.1582L196.125 0.970703H259.875C260.458 0.970703 261.083 0.929036 261.75 0.845703C262.458 0.76237 262.958 0.69987 263.25 0.658203C264.5 0.44987 265.625 0.345703 266.625 0.345703C267.5 0.345703 268.271 0.429036 268.938 0.595703V20.0332L265.688 20.1582C264.979 19.4499 264.396 18.6582 263.938 17.7832C263.479 16.9082 262.958 15.7624 262.375 14.3457C261.542 12.2624 260.708 10.6374 259.875 9.4707C259.083 8.30404 257.896 7.44987 256.312 6.9082C253.979 6.1582 251.083 5.67904 247.625 5.4707C244.167 5.26237 240.167 5.1582 235.625 5.1582C230.292 5.1582 226.083 5.3457 223 5.7207C222.833 7.5957 222.75 9.74154 222.75 12.1582V37.5332H240.75C244.042 37.5332 246.5 37.2832 248.125 36.7832C249.75 36.2832 251 35.4707 251.875 34.3457C252.792 33.2207 254.042 31.2207 255.625 28.3457L256.562 26.6582H260.125V53.4707L256.562 53.6582C255.229 50.0749 253.521 47.2832 251.438 45.2832C249.396 43.2832 246.646 42.2832 243.188 42.2832H222.75V63.3457C222.75 67.7207 223.25 70.9499 224.25 73.0332C225.292 75.1165 226.771 76.4707 228.688 77.0957C230.646 77.679 233.417 77.9707 237 77.9707H243.125C248.375 77.9707 254.708 77.5124 258.5 76.3457C258.5 76.3457 256.625 79.2832 254 82.3457Z" fill="white"/>
<path d="M102.625 17.4707V65.7832L102 70.8457L103.5 71.8457V74.3457L105.5 74.8457L107 77.0332L110 77.8457L111 75.9082L110.5 72.3457L111.5 68.3457L116.062 73.1582V43.2832H160.688V66.5957C160.688 69.554 160.438 71.7415 159.938 73.1582C159.479 74.5332 158.833 75.4499 158 75.9082C157.208 76.3665 155.979 76.7415 154.312 77.0332C152.854 77.3249 151.688 77.5957 150.812 77.8457C149.979 78.0957 149.042 78.5124 148 79.0957L148.125 82.3457H187.438V79.0957C185.938 78.554 183.979 78.0124 181.562 77.4707C179.396 77.0124 177.833 76.5332 176.875 76.0332C175.958 75.4915 175.271 74.4707 174.812 72.9707C174.354 71.429 174.125 68.9915 174.125 65.6582V17.9707C174.125 14.7207 174.375 12.3249 174.875 10.7832C175.417 9.24154 176.188 8.17904 177.188 7.5957C178.188 7.01237 179.833 6.4082 182.125 5.7832C183.833 5.36654 185.604 4.8457 187.438 4.2207L187.312 0.970703H148.125L148 4.1582C149.625 4.94987 151.562 5.63737 153.812 6.2207C155.646 6.7207 157 7.24154 157.875 7.7832C158.75 8.2832 159.438 9.2207 159.938 10.5957C160.438 11.9707 160.688 14.0749 160.688 16.9082V37.8457H116.062V17.5332C116.062 14.4499 116.312 12.1582 116.812 10.6582C117.354 9.1582 118.083 8.1582 119 7.6582C119.958 7.11654 121.417 6.63737 123.375 6.2207C125.833 5.7207 128 5.05404 129.875 4.2207L129.75 0.970703H89.5625L89.4375 4.1582C90.4375 4.61654 91.4792 5.01237 92.5625 5.3457C93.6458 5.67904 94.625 5.94987 95.5 6.1582C97.4167 6.6582 98.8333 7.17904 99.75 7.7207C100.667 8.2207 101.375 9.2207 101.875 10.7207C102.375 12.179 102.625 14.429 102.625 17.4707Z" fill="white"/>
<path d="M16.25 6.0957C18.5 5.76237 21.5417 5.5957 25.375 5.5957H34.5V22.3457L38 23.8457L43 27.3457L42 29.8457L39 31.3457L41 33.3457L46 39.3457L47.9375 36.4395V5.5957H57.5C59.6667 5.5957 61.4583 5.63737 62.875 5.7207C64.3333 5.76237 65.7708 5.88737 67.1875 6.0957C69.1458 6.38737 70.8333 7.36654 72.25 9.0332C73.7083 10.6999 75.2708 13.0124 76.9375 15.9707C77.1458 16.304 77.5833 17.054 78.25 18.2207C78.9167 19.3457 79.5625 20.2832 80.1875 21.0332H83.1875L81.1875 0.470703C75.9792 0.804036 69.1667 0.970703 60.75 0.970703H52.5625L28.1875 1.0332C17.3125 1.0332 8.4375 0.88737 1.5625 0.595703L0 20.9707H2.875C3.79167 19.8457 4.875 18.179 6.125 15.9707C7.33333 13.929 8.35417 12.304 9.1875 11.0957C10.0625 9.88737 11.0833 8.80404 12.25 7.8457C13.4583 6.88737 14.7917 6.30404 16.25 6.0957Z" fill="white"/>
</svg>
