<svg width="39" height="40" viewBox="0 0 39 40" fill="none" xmlns="http://www.w3.org/2000/svg">
<mask id="mask0_402_6262" style="mask-type:luminance" maskUnits="userSpaceOnUse" x="19" y="15" width="20" height="11">
<path d="M19.1807 15.2168H38.4996V25.3365H19.1807V15.2168Z" fill="white"/>
</mask>
<g mask="url(#mask0_402_6262)">
<mask id="mask1_402_6262" style="mask-type:luminance" maskUnits="userSpaceOnUse" x="19" y="15" width="20" height="11">
<path d="M38.4976 19.3614C37.106 18.1516 35.0546 18.5571 34.6601 18.6176C29.5493 19.4219 28.0087 27.2653 22.6349 24.7472C21.401 24.1714 20.1233 22.8362 19.1875 21.1335C25.5037 24.1916 29.1571 12.833 35.5499 15.844C36.6786 16.3772 37.8971 17.6162 38.4954 19.3591" fill="white"/>
</mask>
<g mask="url(#mask1_402_6262)">
<path d="M-0.9375 -0.940674H39.9379V41.0054H-0.9375V-0.940674Z" fill="white"/>
</g>
</g>
<mask id="mask2_402_6262" style="mask-type:luminance" maskUnits="userSpaceOnUse" x="18" y="12" width="20" height="10">
<path d="M18.8613 12.9316H37.5425V21.4203H18.8613V12.9316Z" fill="white"/>
</mask>
<g mask="url(#mask2_402_6262)">
<mask id="mask3_402_6262" style="mask-type:luminance" maskUnits="userSpaceOnUse" x="18" y="13" width="20" height="9">
<path d="M21.8751 21.3039C22.732 21.1762 23.5539 20.8446 24.3056 20.4122C24.5094 20.2957 24.7045 20.1747 24.8973 20.0426C26.7383 18.7969 28.211 17.0741 30.0651 15.8509C31.4261 14.9547 32.9405 14.4798 34.5666 14.6388C34.9984 14.6837 35.4214 14.7777 35.829 14.9122C36.4141 15.116 36.9862 15.4566 37.4793 15.833C37.3631 15.5977 37.2404 15.3782 37.1045 15.172C35.9013 13.2991 34.0297 12.9183 32.5679 13.1109C31.9258 13.1961 31.3165 13.4044 30.7292 13.6934C29.5435 14.2737 28.5419 15.1452 27.6083 16.122C26.0194 17.7686 24.4196 19.5654 22.3573 20.475C21.8335 20.7035 21.2812 20.8065 20.718 20.8267C20.3629 20.8379 19.1817 20.7886 18.9033 20.6564C19.6945 21.3599 21.3426 21.3823 21.8751 21.3039Z" fill="white"/>
</mask>
<g mask="url(#mask3_402_6262)">
<path d="M-0.9375 -0.940552H39.9379V41.0055H-0.9375V-0.940552Z" fill="white"/>
</g>
</g>
<mask id="mask4_402_6262" style="mask-type:luminance" maskUnits="userSpaceOnUse" x="18" y="0" width="8" height="20">
<path d="M18.1836 0.526855H25.2471V19.9507H18.1836V0.526855Z" fill="white"/>
</mask>
<g mask="url(#mask4_402_6262)">
<mask id="mask5_402_6262" style="mask-type:luminance" maskUnits="userSpaceOnUse" x="18" y="0" width="8" height="20">
<path d="M23.7719 0.625488C22.2115 1.60452 21.9594 3.72613 21.8937 4.12491C21.0587 9.34493 27.8833 13.2655 23.8814 17.7126C22.961 18.7365 21.326 19.5632 19.4544 19.9485C24.2496 14.7531 14.8126 7.68931 19.5925 2.40657C20.4341 1.47234 21.9682 0.670295 23.7741 0.625488" fill="white"/>
</mask>
<g mask="url(#mask5_402_6262)">
<path d="M-0.938477 -0.940552H39.9369V41.0055H-0.938477V-0.940552Z" fill="white"/>
</g>
</g>
<mask id="mask6_402_6262" style="mask-type:luminance" maskUnits="userSpaceOnUse" x="15" y="0" width="6" height="21">
<path d="M15.9883 0.5H20.6191V20.1143H15.9883V0.5Z" fill="white"/>
</mask>
<g mask="url(#mask6_402_6262)">
<mask id="mask7_402_6262" style="mask-type:luminance" maskUnits="userSpaceOnUse" x="16" y="0" width="5" height="21">
<path d="M20.176 0.529096C19.9195 0.567182 19.6785 0.616469 19.4462 0.68592C17.3313 1.27513 16.3998 2.98228 16.1259 4.46091C16.0075 5.11061 16.0141 5.76703 16.0996 6.42794C16.2749 7.76094 16.779 9.00434 17.3948 10.2141C18.4358 12.2663 19.6149 14.3767 19.8231 16.6596C19.8735 17.2421 19.799 17.8089 19.6434 18.3623C19.5426 18.7095 19.135 19.8409 18.9246 20.0761C19.8231 19.525 20.3535 17.9299 20.4433 17.3855C20.5902 16.5117 20.5354 15.6089 20.3666 14.7464C20.3206 14.5134 20.268 14.2826 20.2044 14.0563C19.6149 11.8809 18.4709 9.91616 17.9055 7.7363C17.4891 6.13445 17.5176 4.51916 18.1706 2.98676C18.3438 2.58126 18.5629 2.2004 18.815 1.84642C19.1832 1.33786 19.6785 0.887552 20.1825 0.526855L20.176 0.529096Z" fill="white"/>
</mask>
<g mask="url(#mask7_402_6262)">
<path d="M-0.9375 -0.940552H39.9379V41.0055H-0.9375V-0.940552Z" fill="white"/>
</g>
</g>
<mask id="mask8_402_6262" style="mask-type:luminance" maskUnits="userSpaceOnUse" x="1" y="9" width="18" height="11">
<path d="M1.45801 9.10291H18.5437V19.4264H1.45801V9.10291Z" fill="white"/>
</mask>
<g mask="url(#mask8_402_6262)">
<mask id="mask9_402_6262" style="mask-type:luminance" maskUnits="userSpaceOnUse" x="1" y="9" width="18" height="11">
<path d="M1.79292 9.15442C2.22248 10.9691 4.11382 11.8742 4.46886 12.0624C9.06682 14.4864 14.8219 9.06257 17.7192 14.3296C18.3877 15.5394 18.6507 17.3855 18.4337 19.3234C15.0806 13.0571 5.59315 20.047 2.15673 13.7718C1.54966 12.6628 1.27571 10.9288 1.79292 9.15666" fill="white"/>
</mask>
<g mask="url(#mask9_402_6262)">
<path d="M-0.9375 -0.940552H39.9379V41.0055H-0.9375V-0.940552Z" fill="white"/>
</g>
</g>
<mask id="mask10_402_6262" style="mask-type:luminance" maskUnits="userSpaceOnUse" x="0" y="12" width="19" height="8">
<path d="M0.5 12.6068H18.5434V19.9507H0.5V12.6068Z" fill="white"/>
</mask>
<g mask="url(#mask10_402_6262)">
<mask id="mask11_402_6262" style="mask-type:luminance" maskUnits="userSpaceOnUse" x="0" y="12" width="19" height="8">
<path d="M16.3561 17.5781C15.5912 17.1659 14.7343 16.9351 13.8752 16.8365C13.6451 16.8074 13.415 16.7895 13.1849 16.7805C10.9779 16.6797 8.79729 17.1883 6.59693 17.065C4.97734 16.9754 3.48268 16.449 2.25977 15.34C1.9376 15.0487 1.64831 14.7149 1.39628 14.3565C1.03905 13.8434 0.771676 13.2251 0.589774 12.6224C0.548133 12.8801 0.521834 13.1332 0.510876 13.3797C0.40568 15.6178 1.7031 17.0516 2.99833 17.7775C3.56596 18.0911 4.17741 18.2883 4.81955 18.4093C6.1104 18.6535 7.42535 18.5437 8.74031 18.3219C10.9735 17.9455 13.301 17.4504 15.4904 17.9545C16.0471 18.0822 16.5533 18.3308 17.0201 18.6557C17.3138 18.8573 18.2409 19.6056 18.3921 19.8834C18.1576 18.8394 16.8339 17.829 16.3583 17.5781" fill="white"/>
</mask>
<g mask="url(#mask11_402_6262)">
<path d="M-0.9375 -0.940674H39.9379V41.0054H-0.9375V-0.940674Z" fill="white"/>
</g>
</g>
<mask id="mask12_402_6262" style="mask-type:luminance" maskUnits="userSpaceOnUse" x="2" y="19" width="16" height="16">
<path d="M2.89551 19.1351H17.5836V34.3381H2.89551V19.1351Z" fill="white"/>
</mask>
<g mask="url(#mask12_402_6262)">
<mask id="mask13_402_6262" style="mask-type:luminance" maskUnits="userSpaceOnUse" x="2" y="19" width="16" height="16">
<path d="M2.93262 33.1597C4.75602 33.3053 6.18275 31.7438 6.46546 31.457C10.1386 27.7381 6.8731 20.4659 12.6677 19.274C14.0002 18.9984 15.8016 19.3121 17.5352 20.1231C10.6689 21.4449 14.239 32.8304 7.33772 34.2351C6.11919 34.4793 4.42071 34.2104 2.93262 33.1597Z" fill="white"/>
</mask>
<g mask="url(#mask13_402_6262)">
<path d="M-0.9375 -0.940674H39.9379V41.0054H-0.9375V-0.940674Z" fill="white"/>
</g>
</g>
<mask id="mask14_402_6262" style="mask-type:luminance" maskUnits="userSpaceOnUse" x="5" y="20" width="14" height="17">
<path d="M5.76855 20.2777H18.0634V36.0587H5.76855V20.2777Z" fill="white"/>
</mask>
<g mask="url(#mask14_402_6262)">
<mask id="mask15_402_6262" style="mask-type:luminance" maskUnits="userSpaceOnUse" x="5" y="20" width="14" height="17">
<path d="M15.2692 21.6041C14.6467 22.2202 14.1734 22.9819 13.8117 23.7862C13.7175 23.999 13.6255 24.2186 13.5488 24.4381C12.7751 26.553 12.5735 28.8292 11.7758 30.9306C11.1928 32.4787 10.2394 33.7692 8.83026 34.616C8.45988 34.84 8.06101 35.0193 7.65118 35.1515C7.06164 35.3396 6.40416 35.4069 5.78613 35.3979C6.01625 35.5189 6.24418 35.6242 6.46772 35.7115C8.51905 36.5024 10.2504 35.6802 11.3265 34.6519C11.7955 34.1993 12.1702 33.6639 12.4771 33.0791C13.1017 31.8962 13.4107 30.5879 13.6079 29.2369C13.9476 26.9518 14.204 24.5344 15.3546 22.5629C15.6461 22.0611 16.0318 21.6444 16.4767 21.2927C16.7551 21.0709 17.7391 20.401 18.0437 20.336C17.0005 20.2442 15.6549 21.2187 15.2692 21.6041Z" fill="white"/>
</mask>
<g mask="url(#mask15_402_6262)">
<path d="M-0.9375 -0.940552H39.9379V41.0055H-0.9375V-0.940552Z" fill="white"/>
</g>
</g>
<mask id="mask16_402_6262" style="mask-type:luminance" maskUnits="userSpaceOnUse" x="15" y="21" width="14" height="19">
<path d="M15.5078 21.1471H28.1226V39.5H15.5078V21.1471Z" fill="white"/>
</mask>
<g mask="url(#mask16_402_6262)">
<mask id="mask17_402_6262" style="mask-type:luminance" maskUnits="userSpaceOnUse" x="15" y="21" width="14" height="19">
<path d="M25.62 39.4708C26.3147 37.7435 25.3066 35.8728 25.1269 35.5099C22.7994 30.7873 15.0237 31.717 15.7052 25.7151C15.8608 24.335 16.709 22.6794 18.002 21.2456C17.1101 28.3318 28.8044 28.3766 27.976 35.5189C27.8291 36.7802 27.0511 38.3484 25.6156 39.4708" fill="white"/>
</mask>
<g mask="url(#mask17_402_6262)">
<path d="M-0.9375 -0.940552H39.9379V41.0055H-0.9375V-0.940552Z" fill="white"/>
</g>
</g>
<mask id="mask18_402_6262" style="mask-type:luminance" maskUnits="userSpaceOnUse" x="18" y="20" width="13" height="18">
<path d="M18.1836 20.7661H30.1979V37.4141H18.1836V20.7661Z" fill="white"/>
</mask>
<g mask="url(#mask18_402_6262)">
<mask id="mask19_402_6262" style="mask-type:luminance" maskUnits="userSpaceOnUse" x="18" y="20" width="13" height="18">
<path d="M18.6814 23.9048C19.0627 24.7002 19.6237 25.3969 20.2593 25.9973C20.4302 26.1564 20.6056 26.311 20.7853 26.4566C22.5144 27.8613 24.5702 28.7619 26.2818 30.1868C27.542 31.2308 28.4471 32.5571 28.7999 34.1903C28.892 34.6227 28.9358 35.064 28.9358 35.5054C28.9314 36.1349 28.7868 36.7936 28.5917 37.3895C28.7758 37.2035 28.9424 37.0153 29.0914 36.8249C30.4634 35.0752 30.2354 33.1373 29.6064 31.7752C29.3281 31.1815 28.9468 30.6528 28.4997 30.1666C27.5924 29.1943 26.4703 28.4931 25.2737 27.8814C23.2508 26.8464 21.0855 25.8495 19.604 24.1244C19.2292 23.6853 18.9597 23.1834 18.769 22.639C18.6485 22.2963 18.3285 21.1335 18.3658 20.8176C17.9581 21.8056 18.4469 23.4142 18.6857 23.9093" fill="white"/>
</mask>
<g mask="url(#mask19_402_6262)">
<path d="M-0.9375 -0.940674H39.9379V41.0054H-0.9375V-0.940674Z" fill="white"/>
</g>
</g>
</svg>
