<svg width="39" height="40" viewBox="0 0 39 40" fill="none" xmlns="http://www.w3.org/2000/svg">
<mask id="mask0_227_1452" style="mask-type:luminance" maskUnits="userSpaceOnUse" x="19" y="15" width="20" height="11">
<path d="M19.1812 15.2168H38.5V25.3365H19.1812V15.2168Z" fill="white"/>
</mask>
<g mask="url(#mask0_227_1452)">
<mask id="mask1_227_1452" style="mask-type:luminance" maskUnits="userSpaceOnUse" x="19" y="15" width="20" height="11">
<path d="M38.4976 19.3614C37.106 18.1516 35.0546 18.5571 34.6601 18.6176C29.5493 19.4219 28.0087 27.2653 22.6349 24.7472C21.401 24.1714 20.1233 22.8362 19.1875 21.1335C25.5037 24.1916 29.1571 12.833 35.5499 15.844C36.6786 16.3772 37.8971 17.6162 38.4954 19.3591" fill="white"/>
</mask>
<g mask="url(#mask1_227_1452)">
<path d="M-0.937988 -0.940674H39.9374V41.0054H-0.937988V-0.940674Z" fill="#8C3C45"/>
</g>
</g>
<mask id="mask2_227_1452" style="mask-type:luminance" maskUnits="userSpaceOnUse" x="18" y="12" width="20" height="10">
<path d="M18.8613 12.9316H37.5425V21.4203H18.8613V12.9316Z" fill="white"/>
</mask>
<g mask="url(#mask2_227_1452)">
<mask id="mask3_227_1452" style="mask-type:luminance" maskUnits="userSpaceOnUse" x="18" y="13" width="20" height="9">
<path d="M21.8746 21.3038C22.7315 21.1761 23.5534 20.8445 24.3051 20.4121C24.5089 20.2956 24.704 20.1746 24.8968 20.0424C26.7378 18.7968 28.2105 17.074 30.0646 15.8508C31.4256 14.9546 32.94 14.4797 34.5661 14.6387C34.9979 14.6835 35.4209 14.7776 35.8285 14.912C36.4137 15.1159 36.9857 15.4565 37.4788 15.8328C37.3626 15.5976 37.2399 15.378 37.104 15.1719C35.9008 13.299 34.0292 12.9181 32.5674 13.1108C31.9253 13.1959 31.316 13.4043 30.7287 13.6933C29.543 14.2735 28.5415 15.145 27.6078 16.1218C26.0189 17.7685 24.4191 19.5653 22.3568 20.4748C21.833 20.7033 21.2807 20.8064 20.7175 20.8266C20.3624 20.8378 19.1812 20.7885 18.9028 20.6563C19.694 21.3598 21.3421 21.3822 21.8746 21.3038Z" fill="white"/>
</mask>
<g mask="url(#mask3_227_1452)">
<path d="M-0.9375 -0.940674H39.9379V41.0054H-0.9375V-0.940674Z" fill="#8C3C45"/>
</g>
</g>
<mask id="mask4_227_1452" style="mask-type:luminance" maskUnits="userSpaceOnUse" x="18" y="0" width="8" height="20">
<path d="M18.1841 0.526855H25.2476V19.9507H18.1841V0.526855Z" fill="white"/>
</mask>
<g mask="url(#mask4_227_1452)">
<mask id="mask5_227_1452" style="mask-type:luminance" maskUnits="userSpaceOnUse" x="18" y="0" width="8" height="20">
<path d="M23.7728 0.625488C22.2124 1.60452 21.9604 3.72613 21.8946 4.12491C21.0597 9.34493 27.8843 13.2655 23.8824 17.7126C22.962 18.7365 21.327 19.5632 19.4554 19.9485C24.2506 14.7531 14.8136 7.68931 19.5935 2.40657C20.435 1.47234 21.9692 0.670295 23.775 0.625488" fill="white"/>
</mask>
<g mask="url(#mask5_227_1452)">
<path d="M-0.9375 -0.94043H39.9379V41.0056H-0.9375V-0.94043Z" fill="#8C3C45"/>
</g>
</g>
<mask id="mask6_227_1452" style="mask-type:luminance" maskUnits="userSpaceOnUse" x="15" y="0" width="6" height="21">
<path d="M15.9878 0.5H20.6186V20.1143H15.9878V0.5Z" fill="white"/>
</mask>
<g mask="url(#mask6_227_1452)">
<mask id="mask7_227_1452" style="mask-type:luminance" maskUnits="userSpaceOnUse" x="16" y="0" width="5" height="21">
<path d="M20.176 0.529096C19.9195 0.567182 19.6785 0.616469 19.4462 0.68592C17.3313 1.27513 16.3998 2.98228 16.1259 4.46091C16.0075 5.11061 16.0141 5.76703 16.0996 6.42794C16.2749 7.76094 16.779 9.00434 17.3948 10.2141C18.4358 12.2663 19.6149 14.3767 19.8231 16.6596C19.8735 17.2421 19.799 17.8089 19.6434 18.3623C19.5426 18.7095 19.135 19.8409 18.9246 20.0761C19.8231 19.525 20.3535 17.9299 20.4433 17.3855C20.5902 16.5117 20.5354 15.6089 20.3666 14.7464C20.3206 14.5134 20.268 14.2826 20.2044 14.0563C19.6149 11.8809 18.4709 9.91616 17.9055 7.7363C17.4891 6.13445 17.5176 4.51916 18.1706 2.98676C18.3438 2.58126 18.5629 2.2004 18.815 1.84642C19.1832 1.33786 19.6785 0.887552 20.1825 0.526855L20.176 0.529096Z" fill="white"/>
</mask>
<g mask="url(#mask7_227_1452)">
<path d="M-0.937988 -0.940674H39.9374V41.0054H-0.937988V-0.940674Z" fill="#8C3C45"/>
</g>
</g>
<mask id="mask8_227_1452" style="mask-type:luminance" maskUnits="userSpaceOnUse" x="1" y="9" width="18" height="11">
<path d="M1.45752 9.10303H18.5432V19.4266H1.45752V9.10303Z" fill="white"/>
</mask>
<g mask="url(#mask8_227_1452)">
<mask id="mask9_227_1452" style="mask-type:luminance" maskUnits="userSpaceOnUse" x="1" y="9" width="18" height="11">
<path d="M1.79292 9.15454C2.22248 10.9692 4.11382 11.8743 4.46886 12.0625C9.06682 14.4866 14.8219 9.06269 17.7192 14.3297C18.3877 15.5395 18.6507 17.3856 18.4337 19.3235C15.0806 13.0572 5.59315 20.0471 2.15673 13.7719C1.54966 12.6629 1.27571 10.9289 1.79292 9.15678" fill="white"/>
</mask>
<g mask="url(#mask9_227_1452)">
<path d="M-0.937988 -0.94043H39.9374V41.0056H-0.937988V-0.94043Z" fill="#8C3C45"/>
</g>
</g>
<mask id="mask10_227_1452" style="mask-type:luminance" maskUnits="userSpaceOnUse" x="0" y="12" width="19" height="8">
<path d="M0.5 12.6067H18.5434V19.9506H0.5V12.6067Z" fill="white"/>
</mask>
<g mask="url(#mask10_227_1452)">
<mask id="mask11_227_1452" style="mask-type:luminance" maskUnits="userSpaceOnUse" x="0" y="12" width="19" height="8">
<path d="M16.3561 17.578C15.5912 17.1657 14.7343 16.935 13.8752 16.8364C13.6451 16.8073 13.415 16.7894 13.1849 16.7804C10.9779 16.6796 8.79729 17.1881 6.59693 17.0649C4.97734 16.9753 3.48268 16.4488 2.25977 15.3399C1.9376 15.0486 1.64831 14.7148 1.39628 14.3563C1.03905 13.8433 0.771676 13.225 0.589774 12.6223C0.548133 12.88 0.521834 13.1331 0.510876 13.3796C0.40568 15.6177 1.7031 17.0515 2.99833 17.7774C3.56596 18.091 4.17741 18.2882 4.81955 18.4091C6.1104 18.6533 7.42535 18.5436 8.74031 18.3218C10.9735 17.9454 13.301 17.4503 15.4904 17.9543C16.0471 18.082 16.5533 18.3307 17.0201 18.6556C17.3138 18.8572 18.2409 19.6055 18.3921 19.8833C18.1576 18.8393 16.8339 17.8289 16.3583 17.578" fill="white"/>
</mask>
<g mask="url(#mask11_227_1452)">
<path d="M-0.937988 -0.940674H39.9374V41.0054H-0.937988V-0.940674Z" fill="#8C3C45"/>
</g>
</g>
<mask id="mask12_227_1452" style="mask-type:luminance" maskUnits="userSpaceOnUse" x="2" y="19" width="16" height="16">
<path d="M2.89551 19.1353H17.5836V34.3383H2.89551V19.1353Z" fill="white"/>
</mask>
<g mask="url(#mask12_227_1452)">
<mask id="mask13_227_1452" style="mask-type:luminance" maskUnits="userSpaceOnUse" x="2" y="19" width="16" height="16">
<path d="M2.93262 33.1598C4.75602 33.3054 6.18275 31.7439 6.46546 31.4572C10.1386 27.7382 6.8731 20.466 12.6677 19.2741C14.0002 18.9986 15.8016 19.3122 17.5352 20.1232C10.6689 21.445 14.239 32.8305 7.33772 34.2352C6.11919 34.4794 4.42071 34.2105 2.93262 33.1598Z" fill="white"/>
</mask>
<g mask="url(#mask13_227_1452)">
<path d="M-0.9375 -0.94043H39.9379V41.0056H-0.9375V-0.94043Z" fill="#8C3C45"/>
</g>
</g>
<mask id="mask14_227_1452" style="mask-type:luminance" maskUnits="userSpaceOnUse" x="5" y="20" width="14" height="17">
<path d="M5.76855 20.2778H18.0634V36.0588H5.76855V20.2778Z" fill="white"/>
</mask>
<g mask="url(#mask14_227_1452)">
<mask id="mask15_227_1452" style="mask-type:luminance" maskUnits="userSpaceOnUse" x="5" y="20" width="14" height="17">
<path d="M15.2692 21.6042C14.6467 22.2203 14.1734 22.982 13.8117 23.7863C13.7175 23.9991 13.6255 24.2187 13.5488 24.4382C12.7751 26.5531 12.5735 28.8293 11.7758 30.9308C11.1928 32.4788 10.2394 33.7693 8.83026 34.6161C8.45988 34.8402 8.06101 35.0194 7.65118 35.1516C7.06164 35.3398 6.40416 35.407 5.78613 35.398C6.01625 35.519 6.24418 35.6243 6.46772 35.7117C8.51905 36.5025 10.2504 35.6803 11.3265 34.652C11.7955 34.1994 12.1702 33.664 12.4771 33.0793C13.1017 31.8964 13.4107 30.588 13.6079 29.2371C13.9476 26.9519 14.204 24.5346 15.3546 22.5631C15.6461 22.0612 16.0318 21.6445 16.4767 21.2928C16.7551 21.071 17.7391 20.4011 18.0437 20.3362C17.0005 20.2443 15.6549 21.2188 15.2692 21.6042Z" fill="white"/>
</mask>
<g mask="url(#mask15_227_1452)">
<path d="M-0.9375 -0.94043H39.9379V41.0056H-0.9375V-0.94043Z" fill="#8C3C45"/>
</g>
</g>
<mask id="mask16_227_1452" style="mask-type:luminance" maskUnits="userSpaceOnUse" x="15" y="21" width="14" height="19">
<path d="M15.5083 21.147H28.1231V39.4999H15.5083V21.147Z" fill="white"/>
</mask>
<g mask="url(#mask16_227_1452)">
<mask id="mask17_227_1452" style="mask-type:luminance" maskUnits="userSpaceOnUse" x="15" y="21" width="14" height="19">
<path d="M25.6205 39.4708C26.3152 37.7435 25.3071 35.8728 25.1274 35.5099C22.7999 30.7873 15.0241 31.717 15.7057 25.7151C15.8613 24.335 16.7095 22.6794 18.0025 21.2456C17.1105 28.3318 28.8049 28.3766 27.9765 35.5189C27.8296 36.7802 27.0516 38.3484 25.6161 39.4708" fill="white"/>
</mask>
<g mask="url(#mask17_227_1452)">
<path d="M-0.937012 -0.940674H39.9384V41.0054H-0.937012V-0.940674Z" fill="#8C3C45"/>
</g>
</g>
<mask id="mask18_227_1452" style="mask-type:luminance" maskUnits="userSpaceOnUse" x="18" y="20" width="13" height="18">
<path d="M18.1841 20.7661H30.1984V37.4141H18.1841V20.7661Z" fill="white"/>
</mask>
<g mask="url(#mask18_227_1452)">
<mask id="mask19_227_1452" style="mask-type:luminance" maskUnits="userSpaceOnUse" x="18" y="20" width="13" height="18">
<path d="M18.6814 23.9048C19.0627 24.7002 19.6237 25.3969 20.2593 25.9973C20.4302 26.1564 20.6056 26.311 20.7853 26.4566C22.5144 27.8613 24.5702 28.7619 26.2818 30.1868C27.542 31.2308 28.4471 32.5571 28.7999 34.1903C28.892 34.6227 28.9358 35.064 28.9358 35.5054C28.9314 36.1349 28.7868 36.7936 28.5917 37.3895C28.7758 37.2035 28.9424 37.0153 29.0914 36.8249C30.4634 35.0752 30.2354 33.1373 29.6064 31.7752C29.3281 31.1815 28.9468 30.6528 28.4997 30.1666C27.5924 29.1943 26.4703 28.4931 25.2737 27.8814C23.2508 26.8464 21.0855 25.8495 19.604 24.1244C19.2292 23.6853 18.9597 23.1834 18.769 22.639C18.6485 22.2963 18.3285 21.1335 18.3658 20.8176C17.9581 21.8056 18.4469 23.4142 18.6857 23.9093" fill="white"/>
</mask>
<g mask="url(#mask19_227_1452)">
<path d="M-0.937988 -0.940674H39.9374V41.0054H-0.937988V-0.940674Z" fill="#8C3C45"/>
</g>
</g>
</svg>
